<?xml version="1.0" encoding="utf-8"?>
<!-- Generator: Adobe Illustrator 25.2.0, SVG Export Plug-In . SVG Version: 6.00 Build 0)  -->
<svg version="1.1" id="Layer_1" xmlns="http://www.w3.org/2000/svg" xmlns:xlink="http://www.w3.org/1999/xlink" x="0px" y="0px"
	 viewBox="0 0 356 100" style="enable-background:new 0 0 356 100;" xml:space="preserve">
<style type="text/css">
	.st0{fill:#FDFEFE;}
	.st1{fill:#010101;}
	.st2{fill:#020202;}
	.st3{fill:#09040A;}
	.st4{fill:#11B0CC;}
	.st5{fill:#0BAECA;}
	.st6{fill:#FBFCFC;}
	.st7{fill:#0CAFCA;}
</style>
<path class="st0" d="M168.8,36c0.4,0.5,0.6,0.8,0.8,1c9.4,12.3,18.8,24.5,28.2,36.8c2.8,3.7,1.7,3,6.2,3.1c2,0,2.6-0.7,2.6-2.6
	c0-11,0-22,0-33.1c0-4.4,0-8.9,0-13.3c0-1.5-0.7-2.2-2.2-2.3c-0.6,0-1.2,0-1.8,0c-2.1,0-2.7,0.6-2.7,2.8c0,12,0,23.9,0,35.9
	c0,0.4,0,0.7,0,1.3c-0.4-0.4-0.6-0.6-0.8-0.9c-9.3-12-18.5-24-27.8-36c-2.8-3.6-1.6-3.1-6.3-3.1c-2.4,0-3,0.6-3,3
	c0,15.1,0,30.2,0,45.4c0,2.4,0.5,3,2.9,3c0.3,0,0.7,0,1,0c2.1,0,2.8-0.6,2.8-2.7c0-12.3,0-24.5,0-36.8C168.8,37,168.8,36.7,168.8,36
	z M316.2,32.2c0.2,0.5,0.4,0.8,0.5,1c2.7,6.7,5.4,13.5,8.2,20.2c2.9,7.2,5.9,14.5,8.8,21.7c0.6,1.4,1.1,1.8,2.7,1.8
	c0.8,0,1.5,0,2.3,0c2,0,2.9-1.3,2.1-3.2c-6.5-15.5-13.1-31.1-19.6-46.6c-0.5-1.1-1.2-1.6-2.4-1.6c-1.5,0-3.1,0-4.6,0
	c-1.4,0-2.2,0.5-2.8,1.8c-4.4,10.5-8.9,21-13.3,31.6c-2.1,4.9-4.2,9.9-6.3,14.8c-0.8,1.8,0.2,3.1,2.1,3.2c0.8,0,1.5,0,2.3,0
	c1.4,0.1,2.2-0.5,2.7-1.8c1.2-2.9,2.4-5.9,3.6-8.8c0.3-0.7,0.6-0.9,1.4-0.9c4.7,0,9.4,0,14.1,0c2.1,0,2.7-0.7,2.7-2.8
	c0-2.1-0.7-2.9-2.7-2.9c-4,0-8,0-12,0c-0.3,0-0.6,0-1-0.1C308.7,50.5,312.4,41.5,316.2,32.2z M219.9,31.3c2.3,0,4.4,0,6.6,0
	c6.5,0,12.9,0,19.4,0c1.1,0,2.1-0.2,2.4-1.4c0.2-0.5,0.1-1.2,0.1-1.7c0-1.8-0.7-2.6-2.5-2.6c-1.9,0-3.9,0-5.8,0
	c-8.1,0-16.1,0-24.2,0c-2.1,0-2.7,0.7-2.7,2.7c0,2,0,4,0,6c0,13.3,0,26.7,0,40c0,1.8,0.7,2.6,2.2,2.6c10.3,0,20.6,0,30.9,0
	c0.5,0,1.3-0.3,1.6-0.7c0.9-1.1,0.7-2.5,0.3-3.8c-0.4-1.1-1.4-1.2-2.5-1.2c-8.2,0-16.4,0-24.6,0c-0.4,0-0.8,0-1.1,0
	c0-5.3,0-10.4,0-15.6c0.5,0,0.9,0,1.3,0c5.5,0,11,0,16.5,0c1.7,0,2.4-0.8,2.4-2.4c0-0.3,0-0.5,0-0.8c0-1.8-0.7-2.5-2.5-2.5
	c-5.5,0-11,0-16.5,0c-0.4,0-0.8,0-1.2,0C219.9,43.6,219.9,37.5,219.9,31.3z M114.9,79.1c15,0,27.2-12.1,27.2-27
	c0-15-12.1-27.2-27.1-27.3c-15,0-27.3,12.1-27.3,27.1C87.8,66.9,99.9,79.1,114.9,79.1z M54.6,79.1c15,0,27.2-12,27.3-27
	c0.1-15-12-27.2-27.1-27.3c-15-0.1-27.3,12.1-27.3,27C27.4,66.8,39.6,79,54.6,79.1z M261.5,71.2c0-0.5,0-0.9,0-1.2
	c0-7.5,0-15,0-22.5c0-6.5,0-13,0-19.4c0-1.7-0.7-2.4-2.4-2.4c-0.6,0-1.2,0-1.9,0c-1.7,0-2.4,0.7-2.4,2.4c0,15.5,0,31,0,46.5
	c0,1.7,0.7,2.4,2.5,2.4c4,0,7.9,0,11.9,0c5,0,10,0,15,0c1.6,0,2.3-0.8,2.4-2.4c0-0.3,0-0.6,0-0.9c0-1.7-0.8-2.5-2.5-2.5
	c-3.7,0-7.5,0-11.2,0C269.1,71.2,265.3,71.2,261.5,71.2z M122.4,13c0,1.4,0,2.7,0,4c9.7,0,19.3,0,28.9,0c0,9.6,0,19.1,0,28.7
	c1.4,0,2.6,0,3.9,0c0-10.9,0-21.8,0-32.7C144.3,13,133.4,13,122.4,13z M14.8,88c11,0,22,0,32.9,0c0-1.4,0-2.6,0-4
	c-9.7,0-19.3,0-28.9,0c0-9.6,0-19.1,0-28.7c-1.4,0-2.6,0-3.9,0C14.8,66.2,14.8,77.1,14.8,88z M47.5,13c-11,0-21.8,0-32.6,0
	c0,11,0,21.9,0,32.8c1.4,0,2.6,0,3.9,0c0-9.7,0-19.2,0-28.9c9.6,0,19.1,0,28.7,0C47.5,15.5,47.5,14.3,47.5,13z M151.3,84.2
	c-9.7,0-19.2,0-28.7,0c0,1.4,0,2.6,0,3.8c10.9,0,21.8,0,32.6,0c0-11,0-21.9,0-32.8c-1.4,0-2.6,0-3.9,0
	C151.3,64.8,151.3,74.4,151.3,84.2z"/>
<path class="st1" d="M168.8,36c0,0.6,0,1,0,1.3c0,12.3,0,24.5,0,36.8c0,2.1-0.6,2.7-2.8,2.7c-0.3,0-0.7,0-1,0c-2.4,0-2.9-0.5-2.9-3
	c0-15.1,0-30.2,0-45.4c0-2.4,0.6-3,3-3c4.7,0,3.5-0.4,6.3,3.1c9.3,12,18.5,24,27.8,36c0.2,0.2,0.4,0.5,0.8,0.9c0-0.6,0-0.9,0-1.3
	c0-12,0-23.9,0-35.9c0-2.1,0.6-2.8,2.7-2.8c0.6,0,1.2,0,1.8,0c1.5,0.1,2.2,0.9,2.2,2.3c0,4.4,0,8.9,0,13.3c0,11,0,22,0,33.1
	c0,2-0.7,2.7-2.6,2.6c-4.5,0-3.4,0.6-6.2-3.1C188.4,61.6,179,49.3,169.6,37C169.4,36.8,169.2,36.5,168.8,36z"/>
<path class="st2" d="M316.2,32.2c-3.8,9.3-7.5,18.3-11.3,27.5c0.4,0,0.7,0.1,1,0.1c4,0,8,0,12,0c2,0,2.7,0.7,2.7,2.9
	c0,2.1-0.7,2.8-2.7,2.8c-4.7,0-9.4,0-14.1,0c-0.7,0-1.1,0.2-1.4,0.9c-1.2,2.9-2.4,5.9-3.6,8.8c-0.5,1.2-1.3,1.9-2.7,1.8
	c-0.8-0.1-1.5,0-2.3,0c-2,0-2.9-1.4-2.1-3.2c2.1-4.9,4.2-9.9,6.3-14.8c4.5-10.5,8.9-21,13.3-31.6c0.6-1.3,1.4-1.9,2.8-1.8
	c1.5,0,3.1,0,4.6,0c1.2,0,1.9,0.5,2.4,1.6c6.5,15.5,13.1,31.1,19.6,46.6c0.8,1.8-0.1,3.1-2.1,3.2c-0.8,0-1.5,0-2.3,0
	c-1.6,0-2.1-0.3-2.7-1.8c-2.9-7.2-5.9-14.5-8.8-21.7c-2.7-6.7-5.4-13.5-8.2-20.2C316.6,32.9,316.4,32.7,316.2,32.2z"/>
<path class="st2" d="M219.9,31.3c0,6.2,0,12.3,0,18.6c0.4,0,0.8,0,1.2,0c5.5,0,11,0,16.5,0c1.8,0,2.5,0.7,2.5,2.5c0,0.3,0,0.5,0,0.8
	c0,1.6-0.8,2.4-2.4,2.4c-5.5,0-11,0-16.5,0c-0.4,0-0.8,0-1.3,0c0,5.2,0,10.4,0,15.6c0.4,0,0.8,0,1.1,0c8.2,0,16.4,0,24.6,0
	c1.1,0,2.1,0.1,2.5,1.2c0.4,1.2,0.6,2.6-0.3,3.8c-0.3,0.4-1.1,0.7-1.6,0.7c-10.3,0-20.6,0-30.9,0c-1.5,0-2.2-0.8-2.2-2.6
	c0-13.3,0-26.7,0-40c0-2,0-4,0-6c0-2,0.7-2.7,2.7-2.7c8.1,0,16.1,0,24.2,0c1.9,0,3.9,0,5.8,0c1.8,0,2.5,0.8,2.5,2.6
	c0,0.6,0,1.2-0.1,1.7c-0.4,1.2-1.3,1.4-2.4,1.4c-6.5,0-12.9,0-19.4,0C224.3,31.3,222.2,31.3,219.9,31.3z"/>
<path class="st3" d="M114.9,79.1c-15,0-27.2-12.2-27.1-27.2c0-15,12.3-27.1,27.3-27.1c15,0,27.1,12.2,27.1,27.3
	C142.1,67,129.9,79.1,114.9,79.1z M137.7,52c0-12.5-10.2-22.8-22.8-22.8c-12.5,0-22.7,10.2-22.8,22.7c0,12.6,10.2,22.8,22.7,22.8
	C127.5,74.7,137.7,64.5,137.7,52z"/>
<path class="st3" d="M54.6,79.1c-15,0-27.2-12.2-27.1-27.2c0-15,12.3-27.1,27.3-27c15,0.1,27.1,12.3,27.1,27.3
	C81.8,67,69.6,79.1,54.6,79.1z M77.4,52c0-12.5-10.2-22.8-22.8-22.8c-12.5,0-22.7,10.2-22.8,22.6c0,12.5,10.2,22.8,22.7,22.8
	C67.2,74.7,77.4,64.5,77.4,52z"/>
<path class="st1" d="M261.5,71.2c3.9,0,7.6,0,11.3,0c3.7,0,7.5,0,11.2,0c1.7,0,2.5,0.8,2.5,2.5c0,0.3,0,0.6,0,0.9
	c0,1.6-0.8,2.3-2.4,2.4c-5,0-10,0-15,0c-4,0-7.9,0-11.9,0c-1.8,0-2.5-0.7-2.5-2.4c0-15.5,0-31,0-46.5c0-1.7,0.7-2.4,2.4-2.4
	c0.6,0,1.2,0,1.9,0c1.7,0,2.4,0.7,2.4,2.4c0,6.5,0,13,0,19.4c0,7.5,0,15,0,22.5C261.5,70.3,261.5,70.7,261.5,71.2z"/>
<path class="st4" d="M122.4,13c11,0,21.9,0,32.9,0c0,10.9,0,21.8,0,32.7c-1.3,0-2.5,0-3.9,0c0-9.6,0-19.1,0-28.7
	c-9.7,0-19.3,0-28.9,0C122.4,15.7,122.4,14.4,122.4,13z"/>
<path class="st4" d="M14.8,88c0-10.9,0-21.8,0-32.7c1.3,0,2.6,0,3.9,0c0,9.6,0,19.1,0,28.7c9.7,0,19.3,0,28.9,0c0,1.4,0,2.6,0,4
	C36.7,88,25.8,88,14.8,88z"/>
<path class="st5" d="M47.5,13c0,1.3,0,2.5,0,3.9c-9.6,0-19.1,0-28.7,0c0,9.7,0,19.3,0,28.9c-1.3,0-2.5,0-3.9,0c0-10.9,0-21.8,0-32.8
	C25.6,13,36.5,13,47.5,13z"/>
<path class="st5" d="M151.3,84.2c0-9.8,0-19.3,0-29c1.3,0,2.6,0,3.9,0c0,10.9,0,21.8,0,32.8c-10.8,0-21.6,0-32.6,0
	c0-1.2,0-2.5,0-3.8C132.1,84.2,141.7,84.2,151.3,84.2z"/>
<path class="st6" d="M137.7,52c0,12.5-10.3,22.7-22.8,22.7c-12.5,0-22.7-10.3-22.7-22.8c0-12.5,10.3-22.7,22.8-22.7
	C127.5,29.2,137.8,39.4,137.7,52z M127.7,38.5c0.1,0,0.2,0,0.3,0c0-0.1-0.1-0.1-0.1-0.2c-3.3-3.3-7.3-5-11.9-5.2
	c-11.9-0.6-21.1,9.4-19.7,21.2c1.1,8.8,8.7,15.8,17.5,16.3c12.6,0.6,22.2-10.7,19.4-23c-0.5-2.2-1.3-4.3-2.8-6.3c0,0.5,0,0.7,0,1
	c-0.1,2-1.6,3.6-3.5,3.7c-1.9,0.1-3.7-1.2-4.1-3.1C122.3,40.4,124.7,37.8,127.7,38.5z"/>
<path class="st6" d="M77.4,52c0,12.5-10.3,22.7-22.8,22.7c-12.5,0-22.8-10.3-22.7-22.8c0-12.5,10.3-22.6,22.8-22.6
	C67.2,29.2,77.5,39.4,77.4,52z M67.6,38.4C61.4,32.1,50,30.9,42.1,38c-7.8,7.1-8.3,19.1-1.2,26.7c7.3,7.8,19.4,8.1,26.9,0.8
	c7.6-7.3,6.7-18.2,2.7-23.4c-0.3,2.7-1.9,4.2-4.2,4.1c-2-0.1-3.6-1.9-3.6-3.9C62.7,39.8,64.4,38.5,67.6,38.4z"/>
<path class="st7" d="M127.7,38.5c-3.1-0.7-5.4,1.9-4.9,4.5c0.4,1.9,2.1,3.2,4.1,3.1c1.9-0.1,3.4-1.7,3.5-3.7c0-0.3,0-0.5,0-1
	c1.5,2,2.3,4.1,2.8,6.3c2.8,12.3-6.8,23.6-19.4,23c-8.9-0.4-16.4-7.5-17.5-16.3c-1.5-11.8,7.8-21.8,19.7-21.2
	c4.6,0.2,8.6,1.9,11.9,5.2C127.8,38.4,127.8,38.5,127.7,38.5z"/>
<path class="st7" d="M127.9,38.4c0,0.1,0.1,0.1,0.1,0.2c-0.1,0-0.2,0-0.3,0C127.8,38.5,127.8,38.4,127.9,38.4z"/>
<path class="st7" d="M67.6,38.4c-3.2,0.1-4.9,1.5-4.9,3.8c0,2,1.6,3.8,3.6,3.9c2.3,0.2,3.9-1.4,4.2-4.1c4,5.2,4.8,16.1-2.7,23.4
	c-7.5,7.3-19.6,7-26.9-0.8c-7.1-7.5-6.6-19.6,1.2-26.7C50,30.9,61.4,32.1,67.6,38.4z"/>
<g>
	<path d="M245.5,90v-4.1c0-0.1,0.1-0.2,0.2-0.2h1.7c0.9,0,1.5,0.8,1.5,1.5s-0.5,1.5-1.5,1.5h-1.3V90c0,0.1-0.1,0.2-0.2,0.2h-0.2
		C245.6,90.2,245.5,90.1,245.5,90z M248.2,87.2c0-0.5-0.4-1-0.9-1h-1.2v2.1h1.2C247.9,88.3,248.2,87.8,248.2,87.2z"/>
	<path d="M249.3,88c0-1.3,0.9-2.3,2.3-2.3c1.4,0,2.3,1,2.3,2.3s-0.9,2.3-2.3,2.3S249.3,89.3,249.3,88z M253.3,88
		c0-1.1-0.7-1.8-1.7-1.8c-1.1,0-1.7,0.8-1.7,1.8c0,1,0.7,1.8,1.7,1.8C252.7,89.8,253.3,89,253.3,88z"/>
	<path d="M258,90.1l-1-2.4l-1,2.4c0,0.1-0.1,0.1-0.2,0.1h-0.4c-0.1,0-0.2,0-0.2-0.1l-1.2-4.1c0-0.1,0-0.2,0.2-0.2h0.3
		c0.1,0,0.2,0,0.2,0.1l1,3.6l1-2.6c0-0.1,0.1-0.1,0.2-0.1h0.2c0.1,0,0.1,0,0.2,0.1l1,2.6l1-3.6c0-0.1,0.1-0.1,0.2-0.1h0.3
		c0.1,0,0.2,0.1,0.2,0.2l-1.2,4.1c0,0.1-0.1,0.1-0.2,0.1h-0.4C258.1,90.2,258,90.2,258,90.1z"/>
	<path d="M260.7,90.2c-0.1,0-0.2-0.1-0.2-0.2v-4.1c0-0.1,0.1-0.2,0.2-0.2h2.7c0.1,0,0.2,0.1,0.2,0.2v0.1c0,0.1-0.1,0.2-0.2,0.2h-2.3
		v1.6h1.6c0.1,0,0.2,0.1,0.2,0.2v0.1c0,0.1-0.1,0.2-0.2,0.2h-1.6v1.4h2.3c0.1,0,0.2,0.1,0.2,0.2V90c0,0.1-0.1,0.2-0.2,0.2H260.7z"/>
	<path d="M266.8,90.1l-1.1-1.4h-0.9V90c0,0.1-0.1,0.2-0.2,0.2h-0.2c-0.1,0-0.2-0.1-0.2-0.2v-4.1c0-0.1,0.1-0.2,0.2-0.2h1.7
		c0.9,0,1.5,0.7,1.5,1.5c0,0.8-0.6,1.4-1.2,1.5l1,1.2c0.1,0.1,0,0.3-0.1,0.3H267C266.9,90.2,266.9,90.2,266.8,90.1z M266.9,87.2
		c0-0.5-0.4-1-0.9-1h-1.2v2.1h1.2C266.6,88.3,266.9,87.8,266.9,87.2z"/>
	<path d="M268.3,90.2c-0.1,0-0.2-0.1-0.2-0.2v-4.1c0-0.1,0.1-0.2,0.2-0.2h2.7c0.1,0,0.2,0.1,0.2,0.2v0.1c0,0.1-0.1,0.2-0.2,0.2h-2.3
		v1.6h1.6c0.1,0,0.2,0.1,0.2,0.2v0.1c0,0.1-0.1,0.2-0.2,0.2h-1.6v1.4h2.3c0.1,0,0.2,0.1,0.2,0.2V90c0,0.1-0.1,0.2-0.2,0.2H268.3z"/>
	<path d="M275.7,88c0,1.3-0.9,2.2-2.4,2.2h-1.4c-0.1,0-0.2-0.1-0.2-0.2v-2.9c0-0.1,0.1-0.2,0.2-0.2h0.2c0.1,0,0.2,0.1,0.2,0.2v2.6h1
		c1.1,0,1.8-0.8,1.8-1.8s-0.7-1.8-1.8-1.8h-1.4c-0.1,0-0.2-0.1-0.2-0.2v-0.1c0-0.1,0.1-0.2,0.2-0.2h1.4
		C274.8,85.7,275.7,86.7,275.7,88z"/>
	<path d="M281.9,89c0,0.7-0.5,1.2-1.3,1.2h-2.1c0,0-0.1,0-0.1-0.1v-4.3c0,0,0-0.1,0.1-0.1h2c0.8,0,1.3,0.5,1.3,1.1
		c0,0.6-0.4,0.9-0.8,1C281.5,88,281.9,88.5,281.9,89z M281.3,88.9c0-0.4-0.3-0.8-0.9-0.8h-0.7c0,0-0.1,0-0.1-0.1v-0.3
		c0,0,0-0.1,0.1-0.1h0.7c0.5,0,0.8-0.3,0.8-0.7c0-0.4-0.3-0.7-0.8-0.7H279v3.5h1.4C281,89.7,281.3,89.4,281.3,88.9z"/>
	<path d="M283.6,90v-1.4l-1.7-2.7c-0.1-0.1,0-0.3,0.2-0.3h0.2c0.1,0,0.1,0,0.2,0.1l1.5,2.4l1.5-2.4c0,0,0.1-0.1,0.2-0.1h0.2
		c0.1,0,0.2,0.2,0.2,0.3l-1.7,2.7V90c0,0.1-0.1,0.2-0.2,0.2h-0.2C283.7,90.2,283.6,90.1,283.6,90z"/>
	<path d="M292.5,90.2h-0.3c-0.1,0-0.1,0-0.2-0.1l-1.5-3.8l-1,2.4h1.2c0.1,0,0.2,0.1,0.2,0.2V89c0,0.1-0.1,0.2-0.2,0.2h-1.4l-0.4,0.9
		c0,0.1-0.1,0.1-0.2,0.1h-0.3c-0.1,0-0.2-0.1-0.2-0.2l1.8-4.1c0-0.1,0.1-0.1,0.2-0.1h0.5c0.1,0,0.1,0,0.2,0.1l1.7,4.1
		C292.7,90.1,292.7,90.2,292.5,90.2z"/>
	<path d="M295.9,90.1l-1.9-1.8l-0.3,0.4V90c0,0.1-0.1,0.2-0.2,0.2h-0.2c-0.1,0-0.2-0.1-0.2-0.2v-4.1c0-0.1,0.1-0.2,0.2-0.2h0.2
		c0.1,0,0.2,0.1,0.2,0.2V88l2-2.2c0,0,0.1-0.1,0.1-0.1h0.2c0.2,0,0.2,0.2,0.1,0.3l-1.8,2l2,1.9c0.1,0.1,0,0.3-0.1,0.3h-0.2
		C296,90.2,296,90.2,295.9,90.1z"/>
	<path d="M299.1,90v-4.1c0-0.1,0.1-0.2,0.2-0.2h0.2c0.1,0,0.2,0.1,0.2,0.2V90c0,0.1-0.1,0.2-0.2,0.2h-0.2
		C299.2,90.2,299.1,90.1,299.1,90z"/>
	<path d="M301.8,90v-3.8h-1.3c-0.1,0-0.2-0.1-0.2-0.2v-0.1c0-0.1,0.1-0.2,0.2-0.2h3.1c0.1,0,0.2,0.1,0.2,0.2v0.1
		c0,0.1-0.1,0.2-0.2,0.2h-1.3V90c0,0.1-0.1,0.2-0.2,0.2h-0.2C301.9,90.2,301.8,90.1,301.8,90z"/>
	<path d="M309.9,89c0,0.7-0.5,1.3-1.7,1.3c-0.6,0-1.1-0.2-1.5-0.4c-0.1-0.1-0.1-0.2,0-0.3l0.1-0.2c0.1-0.1,0.2-0.1,0.2,0
		c0.3,0.2,0.7,0.4,1.2,0.4c0.8,0,1.1-0.4,1.1-0.8c0-1.1-2.8-0.5-2.8-2.1c0-0.7,0.7-1.3,1.6-1.3c0.4,0,0.7,0.1,1,0.2
		c0.1,0,0.1,0.2,0.1,0.3l-0.1,0.1c0,0.1-0.1,0.1-0.2,0c-0.2-0.1-0.5-0.2-0.8-0.2c-0.6,0-1,0.3-1,0.7C307.2,87.9,309.9,87.3,309.9,89
		z"/>
	<path d="M310.5,88c0-1.3,0.9-2.3,2.3-2.3c1.4,0,2.3,1,2.3,2.3s-0.9,2.3-2.3,2.3S310.5,89.3,310.5,88z M314.6,88
		c0-1.1-0.7-1.8-1.7-1.8s-1.7,0.8-1.7,1.8c0,1,0.7,1.8,1.7,1.8S314.6,89,314.6,88z"/>
	<path d="M315.7,90v-4.1c0-0.1,0.1-0.2,0.2-0.2h0.2c0.1,0,0.2,0.1,0.2,0.2v3.8h2c0.1,0,0.2,0.1,0.2,0.2V90c0,0.1-0.1,0.2-0.2,0.2
		h-2.4C315.8,90.2,315.7,90.1,315.7,90z"/>
	<path d="M318.6,88.5v-2.6c0-0.1,0.1-0.2,0.2-0.2h0.2c0.1,0,0.2,0.1,0.2,0.2v2.5c0,0.8,0.3,1.3,1.1,1.3c0.9,0,1.1-0.5,1.1-1.3v-2.5
		c0-0.1,0.1-0.2,0.2-0.2h0.2c0.1,0,0.2,0.1,0.2,0.2v2.6c0,1.1-0.5,1.8-1.8,1.8C319,90.3,318.6,89.6,318.6,88.5z"/>
	<path d="M324.1,90v-3.8h-1.3c-0.1,0-0.2-0.1-0.2-0.2v-0.1c0-0.1,0.1-0.2,0.2-0.2h3.1c0.1,0,0.2,0.1,0.2,0.2v0.1
		c0,0.1-0.1,0.2-0.2,0.2h-1.3V90c0,0.1-0.1,0.2-0.2,0.2h-0.2C324.2,90.2,324.1,90.1,324.1,90z"/>
	<path d="M326.8,90v-4.1c0-0.1,0.1-0.2,0.2-0.2h0.2c0.1,0,0.2,0.1,0.2,0.2V90c0,0.1-0.1,0.2-0.2,0.2H327
		C326.9,90.2,326.8,90.1,326.8,90z"/>
	<path d="M327.9,88c0-1.3,0.9-2.3,2.3-2.3c1.4,0,2.3,1,2.3,2.3s-0.9,2.3-2.3,2.3C328.9,90.3,327.9,89.3,327.9,88z M332,88
		c0-1.1-0.7-1.8-1.7-1.8s-1.7,0.8-1.7,1.8c0,1,0.7,1.8,1.7,1.8S332,89,332,88z"/>
	<path d="M336.4,90.1l-2.7-3.5V90c0,0.1-0.1,0.2-0.2,0.2h-0.2c-0.1,0-0.2-0.1-0.2-0.2v-4.1c0-0.1,0.1-0.2,0.2-0.2h0.3
		c0,0,0.1,0,0.1,0.1l2.6,3.4v-3.3c0-0.1,0.1-0.2,0.2-0.2h0.2c0.1,0,0.2,0.1,0.2,0.2V90c0,0.1-0.1,0.2-0.2,0.2h-0.3
		C336.5,90.2,336.5,90.2,336.4,90.1z"/>
	<path d="M341,89c0,0.7-0.5,1.3-1.7,1.3c-0.6,0-1.1-0.2-1.5-0.4c-0.1-0.1-0.1-0.2,0-0.3l0.1-0.2c0.1-0.1,0.2-0.1,0.2,0
		c0.3,0.2,0.7,0.4,1.2,0.4c0.8,0,1.1-0.4,1.1-0.8c0-1.1-2.8-0.5-2.8-2.1c0-0.7,0.7-1.3,1.6-1.3c0.4,0,0.7,0.1,1,0.2
		c0.1,0,0.1,0.2,0.1,0.3l-0.1,0.1c0,0.1-0.1,0.1-0.2,0c-0.2-0.1-0.5-0.2-0.8-0.2c-0.6,0-1,0.3-1,0.7C338.2,87.9,341,87.3,341,89z"/>
</g>
</svg>
