<?xml version="1.0" encoding="utf-8"?>
<!-- Generator: Adobe Illustrator 25.2.0, SVG Export Plug-In . SVG Version: 6.00 Build 0)  -->
<svg version="1.1" id="Layer_1" xmlns="http://www.w3.org/2000/svg" xmlns:xlink="http://www.w3.org/1999/xlink" x="0px" y="0px"
	 viewBox="0 0 1134 1000" style="enable-background:new 0 0 1134 1000;" xml:space="preserve">
<style type="text/css">
	.st0{fill:#FEFEFE;}
	.st1{fill:#09040A;}
	.st2{fill:#11B0CC;}
	.st3{fill:#0BAECA;}
	.st4{fill:#FBFCFC;}
	.st5{fill:#0CAFCA;}
	.st6{fill:#FF0000;}
</style>
<path class="st0" d="M410,146.3C342.5,146,287.3,200.6,287,268c-0.4,67.8,54.2,123,122,123.4c67.7,0.4,123-54.3,123.3-122
	C532.5,201.6,477.8,146.5,410,146.3z M681.6,146.3c-67.8,0-122.6,55-122.6,122.8c0.1,67.5,54.9,122.3,122.5,122.4
	c67.8,0.1,122.8-54.8,122.8-122.5C804.4,201.1,749.4,146.2,681.6,146.3z M715.1,111.2c43.8,0,87,0,131,0c0,43.4,0,86.4,0,129.5
	c6.2,0,11.8,0,17.6,0c0-49.4,0-98.5,0-147.6c-49.6,0-99,0-148.5,0C715.1,99.3,715.1,104.9,715.1,111.2z M378.1,413.4
	c-43.7,0-87.1,0-131,0c0-43.5,0-86.4,0-129.3c-6.2,0-11.9,0-17.5,0c0,49.4,0,98.4,0,147.5c49.6,0,99,0,148.5,0
	C378.1,425.6,378.1,420,378.1,413.4z M230.1,92.8c0,49.8,0,99.1,0,148.3c6.2,0,11.8,0,17.7,0c0-43.6,0-86.9,0-130.6
	c43.4,0,86.3,0,129.3,0c0-6.2,0-11.8,0-17.6C327.8,92.8,278.9,92.8,230.1,92.8z M845.5,283.5c0,43.7,0,87.1,0,130.9
	c-43.5,0-86.4,0-129.3,0c0,6.1,0,11.6,0,17.4c49.3,0,98.3,0,147.1,0c0-49.5,0-98.8,0-148.3C857.3,283.5,851.9,283.5,845.5,283.5z"/>
<path class="st1" d="M410,146.3c67.7,0.2,122.5,55.4,122.2,123.1c-0.3,67.7-55.6,122.4-123.3,122C341.2,391,286.6,335.8,287,268
	C287.3,200.6,342.5,146,410,146.3z M512.3,269c0.1-56.6-46-102.8-102.7-102.9c-56.4,0-102.6,45.9-102.8,102.2
	c-0.2,56.6,45.9,103,102.4,103.1C466,371.6,512.3,325.6,512.3,269z"/>
<path class="st1" d="M681.6,146.3c67.8,0,122.7,54.9,122.7,122.6c0,67.7-55.1,122.6-122.8,122.5C614,391.3,559.1,336.5,559,269
	C559,201.3,613.9,146.3,681.6,146.3z M681.5,371.5c56.7,0.1,102.9-46,103-102.6c0-56.4-45.9-102.6-102.3-102.8
	C625.4,166,579.1,212,578.9,268.5C578.8,325.1,624.9,371.4,681.5,371.5z"/>
<path class="st2" d="M715.1,111.2c0-6.4,0-11.9,0-18c49.5,0,98.9,0,148.5,0c0,49,0,98.2,0,147.6c-5.8,0-11.3,0-17.6,0
	c0-43.1,0-86.1,0-129.5C802.1,111.2,758.9,111.2,715.1,111.2z"/>
<path class="st2" d="M378.1,413.4c0,6.6,0,12.2,0,18.2c-49.6,0-98.9,0-148.5,0c0-49,0-98.1,0-147.5c5.7,0,11.4,0,17.5,0
	c0,42.9,0,85.8,0,129.3C291,413.4,334.4,413.4,378.1,413.4z"/>
<path class="st3" d="M230.1,92.8c48.8,0,97.7,0,146.9,0c0,5.8,0,11.5,0,17.6c-43,0-85.9,0-129.3,0c0,43.7,0,87,0,130.6
	c-5.9,0-11.5,0-17.7,0C230.1,191.9,230.1,142.6,230.1,92.8z"/>
<path class="st3" d="M845.5,283.5c6.4,0,11.8,0,17.8,0c0,49.5,0,98.8,0,148.3c-48.8,0-97.9,0-147.1,0c0-5.8,0-11.3,0-17.4
	c42.9,0,85.8,0,129.3,0C845.5,370.6,845.5,327.2,845.5,283.5z"/>
<path class="st4" d="M512.3,269c-0.1,56.6-46.4,102.6-103.1,102.5c-56.5-0.1-102.7-46.5-102.4-103.1
	c0.2-56.4,46.4-102.3,102.8-102.2C466.3,166.2,512.4,212.4,512.3,269z M467.9,207.7c-28.2-28.5-80-34-115.5-1.4
	c-35.1,32.1-37.1,86.6-4.8,120.5c33.2,34.9,87.5,36,121.4,2.7c33.7-33.1,29.9-82,11.9-105.3c-1.3,12-8.6,19.1-19,18.4
	c-9-0.6-16.2-8.5-16.1-17.6C446,214.2,453.6,208.2,467.9,207.7z"/>
<path class="st4" d="M681.5,371.5c-56.6-0.1-102.7-46.3-102.5-103c0.1-56.5,46.5-102.5,103.2-102.3c56.4,0.2,102.3,46.3,102.3,102.8
	C784.4,325.5,738.2,371.6,681.5,371.5z M739.3,208.3c0.4,0.1,0.8,0.1,1.2,0.2c-0.2-0.3-0.4-0.6-0.6-0.9
	c-14.8-14.8-33-22.4-53.7-23.4c-53.7-2.6-95.3,42.7-88.7,95.9c5,39.8,39,71.5,79,73.5c56.9,2.8,100.3-48.4,87.7-103.9
	c-2.3-9.9-6-19.3-12.7-28.4c0,2.2,0,3.4,0,4.5c-0.4,8.9-7.3,16.1-16,16.7c-9,0.6-17.1-5.6-18.6-14.5
	C715.2,216.3,725.6,205.1,739.3,208.3z"/>
<path class="st5" d="M467.9,207.7c-14.3,0.5-21.9,6.6-22,17.2c-0.1,9.2,7,17,16.1,17.6c10.4,0.7,17.7-6.3,19-18.4
	c18.1,23.3,21.8,72.2-11.9,105.3c-33.9,33.3-88.1,32.2-121.4-2.7c-32.3-33.9-30.3-88.4,4.8-120.5
	C387.9,173.7,439.7,179.2,467.9,207.7z"/>
<path class="st5" d="M739.3,208.3c-13.8-3.2-24.1,8-22.2,19.7c1.5,8.9,9.6,15.1,18.6,14.5c8.6-0.6,15.6-7.8,16-16.7
	c0.1-1.1,0-2.3,0-4.5c6.7,9.1,10.5,18.5,12.7,28.4c12.6,55.4-30.8,106.7-87.7,103.9c-40-2-74.1-33.7-79-73.5
	c-6.6-53.3,35-98.5,88.7-95.9c20.7,1,38.9,8.6,53.7,23.4C739.8,207.8,739.5,208,739.3,208.3z"/>
<path class="st5" d="M740,207.6c0.2,0.3,0.4,0.6,0.6,0.9c-0.4-0.1-0.8-0.1-1.2-0.2C739.5,208,739.8,207.8,740,207.6z"/>
<g>
	<path d="M54.1,593.2c0-52.1,37.1-91.2,91.7-91.2s92,39.1,92,91.2c0,52.1-37.4,91.2-92,91.2S54.1,645.3,54.1,593.2z M213.9,593.2
		c0-41.3-26.9-71.7-68.1-71.7c-41.5,0-67.9,30.4-67.9,71.7c0,41,26.3,71.7,67.9,71.7C187,664.9,213.9,634.2,213.9,593.2z"/>
	<path d="M259.9,593.2c0-52.1,37.1-91.2,91.7-91.2s92,39.1,92,91.2c0,52.1-37.4,91.2-92,91.2S259.9,645.3,259.9,593.2z M419.7,593.2
		c0-41.3-26.9-71.7-68.1-71.7c-41.5,0-67.9,30.4-67.9,71.7c0,41,26.3,71.7,67.9,71.7C392.8,664.9,419.7,634.2,419.7,593.2z"/>
	<path d="M594.3,678.7L488.7,540.7v133.6c0,3.9-3.2,7.1-7.1,7.1h-8.8c-3.9,0-7.1-3.2-7.1-7.1V512.1c0-3.9,3.2-7.1,7.1-7.1h13
		c2.2,0,4.3,1,5.6,2.8l104.2,135V512.1c0-3.9,3.2-7.1,7.1-7.1h8.8c3.9,0,7.1,3.2,7.1,7.1v162.2c0,3.9-3.2,7.1-7.1,7.1h-11.6
		C597.7,681.4,595.6,680.4,594.3,678.7z"/>
	<path d="M647.7,681.3c-3.9,0-7-3.1-7-7V512.1c0-3.9,3.2-7.1,7.1-7.1h106.9c3.9,0,7.1,3.2,7.1,7.1v5.3c0,3.9-3.2,7.1-7.1,7.1h-90.9
		v63.8h62.4c3.9,0,7.1,3.2,7.1,7.1v5.3c0,3.9-3.2,7.1-7.1,7.1h-62.4v53.9h90.9c3.9,0,7.1,3.2,7.1,7.1v5.3c0,3.9-3.2,7.1-7.1,7.1
		L647.7,681.3z"/>
	<path d="M783.9,674.4V512.1c0-3.9,3.1-7,7-7h9c3.9,0,7,3.1,7,7v149.8h78.9c3.9,0,7,3.1,7,7v5.6c0,3.9-3.1,7-7,7H791
		C787.1,681.4,783.9,678.3,783.9,674.4z"/>
	<path d="M1072.4,681.4h-10.9c-2.9,0-5.4-1.7-6.5-4.4l-60.5-149.5l-39.1,95.2h46.9c3.9,0,7.1,3.2,7.1,7.1v5.2c0,3.9-3.2,7.1-7.1,7.1
		h-53.9l-14.5,35c-1.1,2.6-3.7,4.4-6.5,4.4h-10.9c-5.1,0-8.5-5.2-6.5-9.8l68.5-162.2c1.1-2.6,3.7-4.3,6.5-4.3h19.1
		c2.8,0,5.4,1.7,6.5,4.3l68.3,162.2C1080.9,676.3,1077.5,681.4,1072.4,681.4z"/>
</g>
<g>
	<path d="M288.5,745.6v-22.5c0-0.5,0.4-1,1-1h9.3c5.1,0,8,4.3,8,8.3c0,4-2.9,8.3-8,8.3h-7.1v6.8c0,0.5-0.4,1-1,1h-1.2
		C288.9,746.6,288.5,746.1,288.5,745.6z M303.5,730.5c0-2.7-2.1-5.6-5.1-5.6h-6.7v11.2h6.7C301.4,736.1,303.5,733.2,303.5,730.5z"/>
	<path d="M309.1,734.4c0-7.2,5.1-12.6,12.7-12.6c7.6,0,12.7,5.4,12.7,12.6c0,7.2-5.2,12.6-12.7,12.6
		C314.2,747,309.1,741.6,309.1,734.4z M331.2,734.4c0-5.7-3.7-9.9-9.4-9.9c-5.8,0-9.4,4.2-9.4,9.9c0,5.7,3.6,9.9,9.4,9.9
		C327.5,744.3,331.2,740,331.2,734.4z"/>
	<path d="M356.7,746l-5.4-13.3L346,746c-0.1,0.4-0.5,0.6-0.9,0.6H343c-0.4,0-0.8-0.3-0.9-0.7l-6.7-22.5c-0.2-0.6,0.3-1.3,0.9-1.3
		h1.5c0.4,0,0.8,0.3,0.9,0.7l5.5,19.7l5.6-14c0.1-0.4,0.5-0.6,0.9-0.6h1.3c0.4,0,0.8,0.2,0.9,0.6l5.6,14l5.4-19.7
		c0.1-0.4,0.5-0.7,0.9-0.7h1.5c0.7,0,1.1,0.6,0.9,1.3l-6.7,22.5c-0.1,0.4-0.5,0.7-0.9,0.7h-2.1C357.3,746.6,356.9,746.3,356.7,746z"
		/>
	<path d="M371.5,746.6c-0.5,0-1-0.4-1-1v-22.5c0-0.5,0.4-1,1-1h14.8c0.5,0,1,0.4,1,1v0.7c0,0.5-0.4,1-1,1h-12.6v8.8h8.6
		c0.5,0,1,0.4,1,1v0.7c0,0.5-0.4,1-1,1h-8.6v7.5h12.6c0.5,0,1,0.4,1,1v0.7c0,0.5-0.4,1-1,1L371.5,746.6z"/>
	<path d="M404.9,746.2l-6.2-7.4h-5.1v6.8c0,0.5-0.4,1-1,1h-1.2c-0.5,0-1-0.4-1-1v-22.5c0-0.5,0.4-1,1-1h9.3c4.7,0,8.1,3.8,8.1,8.3
		c0,4.4-3.2,7.8-6.7,8.1l5.5,6.4c0.5,0.6,0.1,1.6-0.7,1.6h-1.2C405.3,746.6,405.1,746.4,404.9,746.2z M405.4,730.5
		c0-2.8-2.1-5.6-5.1-5.6h-6.7v11.3h6.7C403.3,736.1,405.4,733.2,405.4,730.5z"/>
	<path d="M412.7,746.6c-0.5,0-1-0.4-1-1v-22.5c0-0.5,0.4-1,1-1h14.8c0.5,0,1,0.4,1,1v0.7c0,0.5-0.4,1-1,1H415v8.8h8.6
		c0.5,0,1,0.4,1,1v0.7c0,0.5-0.4,1-1,1H415v7.5h12.6c0.5,0,1,0.4,1,1v0.7c0,0.5-0.4,1-1,1L412.7,746.6z"/>
	<path d="M453.5,734.4c0,7-5.1,12.2-13.1,12.2h-7.8c-0.5,0-1-0.4-1-1v-16.1c0-0.5,0.4-1,1-1h1.2c0.5,0,1,0.4,1,1v14.4h5.6
		c6.2,0,9.8-4.3,9.8-9.5c0-5.3-3.5-9.5-9.8-9.5h-7.8c-0.5,0-1-0.4-1-1v-0.7c0-0.5,0.4-1,1-1h7.8
		C448.4,722.1,453.5,727.5,453.5,734.4z"/>
	<path d="M487.1,740c0,3.9-2.7,6.6-7.4,6.6h-11.2c-0.2,0-0.4-0.2-0.4-0.4v-23.6c0-0.2,0.2-0.4,0.4-0.4h11c4.5,0,7.2,2.6,7.2,6.2
		c0,3.1-2.1,5.1-4.5,5.6C484.8,734.4,487.1,737.1,487.1,740z M483.8,739.7c0-2.2-1.6-4.2-4.7-4.2h-3.8c-0.2,0-0.4-0.2-0.4-0.4v-1.9
		c0-0.2,0.2-0.4,0.4-0.4h3.6c2.9,0,4.4-1.7,4.4-3.9c0-2.2-1.5-4-4.4-4h-7.7v19h7.9C482,743.9,483.8,742.3,483.8,739.7z"/>
	<path d="M496.4,745.6v-7.4l-9.1-14.5c-0.4-0.7,0.1-1.5,0.8-1.5h1.1c0.3,0,0.7,0.2,0.8,0.5l7.9,12.8l7.9-12.8
		c0.2-0.3,0.5-0.5,0.8-0.5h1.1c0.8,0,1.2,0.8,0.8,1.5l-9.1,14.5v7.4c0,0.5-0.4,1-1,1h-1.2C496.8,746.6,496.4,746.1,496.4,745.6z"/>
	<path class="st6" d="M545.1,746.6h-1.5c-0.4,0-0.8-0.2-0.9-0.6l-8.4-20.7l-5.4,13.2h6.5c0.5,0,1,0.4,1,1v0.7c0,0.5-0.4,1-1,1h-7.5
		l-2,4.9c-0.2,0.4-0.5,0.6-0.9,0.6h-1.5c-0.7,0-1.2-0.7-0.9-1.4l9.5-22.5c0.2-0.4,0.5-0.6,0.9-0.6h2.7c0.4,0,0.8,0.2,0.9,0.6
		l9.5,22.5C546.3,745.9,545.8,746.6,545.1,746.6z"/>
	<path class="st6" d="M563.6,746.3l-10.2-9.8l-1.8,1.9v7.2c0,0.5-0.4,1-1,1h-1.2c-0.5,0-1-0.4-1-1v-22.5c0-0.5,0.4-1,1-1h1.2
		c0.5,0,1,0.4,1,1v11.6l11-12.3c0.2-0.2,0.5-0.3,0.7-0.3h1.3c0.9,0,1.3,1,0.7,1.6l-10,10.8l11,10.4c0.6,0.6,0.1,1.6-0.7,1.6h-1.3
		C564,746.6,563.7,746.5,563.6,746.3z"/>
	<path class="st6" d="M581.1,745.6v-22.5c0-0.5,0.4-1,1-1h1.2c0.5,0,1,0.4,1,1v22.5c0,0.5-0.4,1-1,1h-1.2
		C581.5,746.6,581.1,746.1,581.1,745.6z"/>
	<path class="st6" d="M595.6,745.6v-20.7h-6.9c-0.5,0-1-0.4-1-1v-0.8c0-0.5,0.4-1,1-1h17.1c0.5,0,1,0.4,1,1v0.8c0,0.5-0.4,1-1,1h-7
		v20.7c0,0.5-0.4,1-1,1h-1.2C596,746.6,595.6,746.1,595.6,745.6z"/>
	<path class="st6" d="M640.1,739.8c0,3.5-2.5,7.2-9.4,7.2c-3.3,0-6-0.9-8-2.3c-0.5-0.3-0.6-1-0.2-1.4l0.7-0.8
		c0.3-0.4,0.9-0.5,1.3-0.2c1.6,1.2,3.8,2,6.3,2c4.6,0,6-2.3,6-4.2c0-6.3-15.2-2.8-15.2-11.5c0-4,3.8-6.8,8.8-6.8
		c2.1,0,4,0.4,5.6,1.1c0.6,0.3,0.8,1,0.3,1.5l-0.6,0.7c-0.3,0.3-0.7,0.4-1.1,0.3c-1.4-0.6-2.9-0.9-4.5-0.9c-3,0-5.3,1.6-5.3,3.9
		C624.9,733.8,640.1,730.7,640.1,739.8z"/>
	<path class="st6" d="M643.1,734.4c0-7.2,5.1-12.6,12.7-12.6c7.6,0,12.7,5.4,12.7,12.6c0,7.2-5.2,12.6-12.7,12.6
		C648.3,747,643.1,741.6,643.1,734.4z M665.3,734.4c0-5.7-3.7-9.9-9.4-9.9c-5.8,0-9.4,4.2-9.4,9.9c0,5.7,3.6,9.9,9.4,9.9
		C661.6,744.3,665.3,740,665.3,734.4z"/>
	<path class="st6" d="M671.6,745.6v-22.5c0-0.5,0.4-1,1-1h1.2c0.5,0,1,0.4,1,1v20.8h10.9c0.5,0,1,0.4,1,1v0.8c0,0.5-0.4,1-1,1h-13.1
		C672.1,746.6,671.6,746.1,671.6,745.6z"/>
	<path class="st6" d="M687.1,737.1v-14c0-0.5,0.4-1,1-1h1.3c0.5,0,1,0.4,1,1V737c0,4.5,1.5,7.3,6.3,7.3s6.3-2.8,6.3-7.3v-13.9
		c0-0.5,0.4-1,1-1h1.3c0.5,0,1,0.4,1,1V737c0,6.1-2.6,10-9.5,10C689.7,747,687.1,743.1,687.1,737.1z"/>
	<path class="st6" d="M717.5,745.6v-20.7h-6.9c-0.5,0-1-0.4-1-1v-0.8c0-0.5,0.4-1,1-1h17.1c0.5,0,1,0.4,1,1v0.8c0,0.5-0.4,1-1,1h-7
		v20.7c0,0.5-0.4,1-1,1h-1.2C717.9,746.6,717.5,746.1,717.5,745.6z"/>
	<path class="st6" d="M732.1,745.6v-22.5c0-0.5,0.4-1,1-1h1.2c0.5,0,1,0.4,1,1v22.5c0,0.5-0.4,1-1,1h-1.2
		C732.5,746.6,732.1,746.1,732.1,745.6z"/>
	<path class="st6" d="M738.3,734.4c0-7.2,5.1-12.6,12.7-12.6c7.6,0,12.7,5.4,12.7,12.6c0,7.2-5.2,12.6-12.7,12.6
		C743.4,747,738.3,741.6,738.3,734.4z M760.4,734.4c0-5.7-3.7-9.9-9.4-9.9c-5.8,0-9.4,4.2-9.4,9.9c0,5.7,3.6,9.9,9.4,9.9
		C756.7,744.3,760.4,740,760.4,734.4z"/>
	<path class="st6" d="M784.6,746.2L770,727.1v18.5c0,0.5-0.4,1-1,1h-1.2c-0.5,0-1-0.4-1-1v-22.5c0-0.5,0.4-1,1-1h1.8
		c0.3,0,0.6,0.1,0.8,0.4l14.4,18.7v-18.1c0-0.5,0.4-1,1-1h1.2c0.5,0,1,0.4,1,1v22.5c0,0.5-0.4,1-1,1h-1.6
		C785.1,746.6,784.8,746.4,784.6,746.2z"/>
	<path class="st6" d="M809.5,739.8c0,3.5-2.5,7.2-9.4,7.2c-3.3,0-6-0.9-8-2.3c-0.5-0.3-0.6-1-0.2-1.4l0.7-0.8
		c0.3-0.4,0.9-0.5,1.3-0.2c1.6,1.2,3.8,2,6.3,2c4.6,0,6-2.3,6-4.2c0-6.3-15.2-2.8-15.2-11.5c0-4,3.8-6.8,8.8-6.8
		c2.1,0,4,0.4,5.6,1.1c0.6,0.3,0.8,1,0.3,1.5l-0.6,0.7c-0.3,0.3-0.7,0.4-1.1,0.3c-1.4-0.6-2.9-0.9-4.5-0.9c-3,0-5.3,1.6-5.3,3.9
		C794.4,733.8,809.5,730.7,809.5,739.8z"/>
</g>
</svg>
