<?xml version="1.0" encoding="utf-8"?>
<!-- Generator: Adobe Illustrator 25.2.0, SVG Export Plug-In . SVG Version: 6.00 Build 0)  -->
<svg version="1.1" id="Layer_1" xmlns="http://www.w3.org/2000/svg" xmlns:xlink="http://www.w3.org/1999/xlink" x="0px" y="0px"
	 viewBox="0 0 110 27" style="enable-background:new 0 0 110 27;" xml:space="preserve">
<style type="text/css">
	.st0{fill:#FDFEFE;}
	.st1{fill:#FFFFFF;}
	.st2{fill:#09040A;}
	.st3{fill:#11B0CC;}
	.st4{fill:#0BAECA;}
	.st5{fill:#FBFCFC;}
	.st6{fill:#0CAFCA;}
</style>
<path class="st0" d="M51.9,9c0.1,0.1,0.2,0.3,0.3,0.3c3.1,4.1,6.2,8.1,9.3,12.1c0.9,1.2,0.5,1,2,1c0.7,0,0.9-0.2,0.9-0.9
	c0-3.6,0-7.3,0-10.9c0-1.5,0-2.9,0-4.4c0-0.5-0.3-0.7-0.7-0.7c-0.2,0-0.4,0-0.6,0c-0.7,0-0.9,0.2-0.9,0.9c0,3.9,0,7.9,0,11.8
	c0,0.1,0,0.2,0,0.4c-0.1-0.1-0.2-0.2-0.3-0.3c-3-4-6.1-7.9-9.2-11.9c-0.9-1.1-0.5-1-2.1-1c-0.8,0-0.9,0.2-0.9,1c0,5,0,10,0,14.9
	c0,0.8,0.2,1,0.9,1c0.1,0,0.2,0,0.3,0c0.7,0,0.9-0.2,0.9-0.9c0-4.1,0-8.1,0-12.2C51.9,9.4,51.9,9.2,51.9,9z M100.4,7.7
	c0.1,0.1,0.1,0.3,0.1,0.3c0.9,2.2,1.8,4.5,2.7,6.7c0.9,2.4,2,4.8,2.9,7.2c0.2,0.5,0.3,0.6,0.9,0.6c0.3,0,0.5,0,0.7,0
	c0.7,0,0.9-0.5,0.7-1c-2.2-5.1-4.3-10.3-6.5-15.3c-0.1-0.3-0.4-0.5-0.8-0.5c-0.5,0-1,0-1.6,0c-0.5,0-0.7,0.1-0.9,0.6
	c-1.5,3.4-2.9,7-4.4,10.4c-0.7,1.6-1.4,3.2-2.1,4.9c-0.3,0.6,0.1,1,0.7,1c0.3,0,0.5,0,0.7,0c0.5,0,0.7-0.2,0.9-0.6
	c0.4-0.9,0.8-2,1.2-2.9c0.1-0.2,0.2-0.3,0.5-0.3c1.6,0,3.1,0,4.7,0c0.7,0,0.9-0.2,0.9-0.9c0-0.7-0.2-0.9-0.9-0.9c-1.4,0-2.6,0-4,0
	c-0.1,0-0.2,0-0.3,0C97.9,13.8,99.2,10.8,100.4,7.7z M68.7,7.5c0.7,0,1.5,0,2.2,0c2.1,0,4.3,0,6.4,0c0.3,0,0.7-0.1,0.8-0.5
	c0.1-0.2,0.1-0.4,0.1-0.5c0-0.6-0.3-0.8-0.8-0.9c-0.6,0-1.3,0-1.9,0c-2.6,0-5.3,0-8,0c-0.7,0-0.9,0.2-0.9,0.9s0,1.4,0,2
	c0,4.4,0,8.8,0,13.2c0,0.6,0.2,0.9,0.7,0.9c3.4,0,6.8,0,10.2,0c0.2,0,0.4-0.1,0.5-0.3c0.3-0.4,0.2-0.8,0.1-1.2
	c-0.1-0.3-0.5-0.4-0.8-0.4c-2.7,0-5.4,0-8.1,0c-0.1,0-0.3,0-0.4,0c0-1.8,0-3.4,0-5.1c0.1,0,0.3,0,0.4,0c1.8,0,3.6,0,5.5,0
	c0.5,0,0.8-0.3,0.8-0.8c0-0.1,0-0.2,0-0.3c0-0.6-0.2-0.8-0.8-0.8c-1.8,0-3.6,0-5.5,0c-0.1,0-0.3,0-0.4,0
	C68.7,11.5,68.7,9.5,68.7,7.5z M34.1,23.2c4.9,0,9-4,9-8.9s-4-9-8.9-9s-9,4-9,8.9C25.1,19.2,29.2,23.2,34.1,23.2z M14.2,23.2
	c4.9,0,9-4,9-8.9s-4-9-8.9-9s-9,4-9,8.9S9.2,23.2,14.2,23.2z M82.4,20.6c0-0.1,0-0.3,0-0.4c0-2.5,0-4.9,0-7.4c0-2.2,0-4.3,0-6.4
	c0-0.5-0.3-0.8-0.8-0.8c-0.2,0-0.4,0-0.6,0c-0.5,0-0.8,0.2-0.8,0.8c0,5.1,0,10.2,0,15.3c0,0.5,0.3,0.8,0.8,0.8c1.3,0,2.6,0,3.9,0
	c1.6,0,3.3,0,4.9,0c0.5,0,0.7-0.3,0.8-0.7c0-0.1,0-0.2,0-0.3c0-0.5-0.3-0.8-0.8-0.8c-1.2,0-2.5,0-3.7,0
	C84.9,20.6,83.7,20.6,82.4,20.6z M36.5,1.5c0,0.5,0,0.9,0,1.4c3.2,0,6.4,0,9.5,0c0,3.2,0,6.3,0,9.5c0.5,0,0.9,0,1.3,0
	c0-3.6,0-7.2,0-10.8C43.7,1.5,40.2,1.5,36.5,1.5z M1,26.1c3.6,0,7.2,0,10.8,0c0-0.5,0-0.9,0-1.4c-3.2,0-6.4,0-9.5,0
	c0-3.2,0-6.3,0-9.5c-0.5,0-0.9,0-1.3,0C1,18.9,1,22.5,1,26.1z M11.9,1.5c-3.6,0-7.2,0-10.7,0c0,3.6,0,7.2,0,10.8c0.5,0,0.9,0,1.3,0
	c0-3.2,0-6.4,0-9.5c3.2,0,6.3,0,9.5,0C11.9,2.3,11.9,1.9,11.9,1.5z M46,24.9c-3.2,0-6.4,0-9.5,0c0,0.5,0,0.9,0,1.3
	c3.6,0,7.2,0,10.7,0c0-3.6,0-7.2,0-10.8c-0.5,0-0.9,0-1.3,0C46,18.5,46,21.7,46,24.9z"/>
<path class="st1" d="M51.9,9c0,0.2,0,0.3,0,0.5c0,4.1,0,8.1,0,12.2c0,0.7-0.2,0.9-0.9,0.9c-0.1,0-0.2,0-0.3,0c-0.8,0-0.9-0.2-0.9-1
	c0-5,0-10,0-14.9c0-0.8,0.2-1,0.9-1c1.6,0,1.1-0.1,2.1,1c3,3.9,6.1,7.9,9.2,11.9c0.1,0.1,0.1,0.1,0.3,0.3c0-0.2,0-0.3,0-0.4
	c0-3.9,0-7.9,0-11.8c0-0.7,0.2-0.9,0.9-0.9c0.2,0,0.4,0,0.6,0c0.5,0,0.7,0.3,0.7,0.7c0,1.5,0,2.9,0,4.4c0,3.6,0,7.3,0,10.9
	c0,0.7-0.2,0.9-0.9,0.9c-1.5,0-1.1,0.2-2-1c-3.1-4.1-6.2-8.1-9.3-12.1C52.1,9.3,52,9.2,51.9,9z"/>
<path class="st1" d="M100.4,7.7c-1.3,3-2.5,6.1-3.7,9.1c0.1,0,0.3,0,0.3,0c1.4,0,2.6,0,4,0c0.7,0,0.9,0.3,0.9,0.9
	c0,0.7-0.2,0.9-0.9,0.9c-1.6,0-3.1,0-4.7,0c-0.3,0-0.3,0.1-0.5,0.3c-0.4,0.9-0.8,2-1.2,2.9c-0.1,0.4-0.4,0.6-0.9,0.6
	c-0.3,0-0.5,0-0.7,0c-0.7,0-0.9-0.5-0.7-1c0.7-1.6,1.4-3.2,2.1-4.9c1.5-3.4,3-7,4.4-10.4c0.2-0.4,0.5-0.6,0.9-0.6c0.5,0,1,0,1.6,0
	c0.4,0,0.6,0.1,0.8,0.5c2.2,5.1,4.3,10.3,6.5,15.3c0.3,0.6-0.1,1-0.7,1c-0.3,0-0.5,0-0.7,0c-0.5,0-0.7-0.1-0.9-0.6
	c-0.9-2.4-2-4.8-2.9-7.2c-0.9-2.2-1.8-4.5-2.7-6.7C100.6,8,100.5,7.9,100.4,7.7z"/>
<path class="st1" d="M68.7,7.5c0,2,0,4.1,0,6.1c0.1,0,0.3,0,0.4,0c1.8,0,3.6,0,5.5,0c0.6,0,0.8,0.2,0.8,0.8c0,0.1,0,0.2,0,0.3
	c0,0.5-0.3,0.8-0.8,0.8c-1.8,0-3.6,0-5.5,0c-0.1,0-0.3,0-0.4,0c0,1.7,0,3.4,0,5.1c0.1,0,0.3,0,0.4,0c2.7,0,5.4,0,8.1,0
	c0.3,0,0.7,0,0.8,0.4c0.1,0.4,0.2,0.9-0.1,1.2c-0.1,0.1-0.3,0.3-0.5,0.3c-3.4,0-6.8,0-10.2,0c-0.5,0-0.7-0.3-0.7-0.9
	c0-4.4,0-8.8,0-13.2c0-0.7,0-1.4,0-2c0-0.7,0.2-0.9,0.9-0.9c2.6,0,5.3,0,8,0c0.6,0,1.3,0,1.9,0S78,5.9,78,6.5c0,0.2,0,0.4-0.1,0.5
	c-0.1,0.4-0.4,0.5-0.8,0.5c-2.1,0-4.3,0-6.4,0C70.2,7.5,69.4,7.5,68.7,7.5z"/>
<path class="st2" d="M34.1,23.2c-4.9,0-9-4.1-8.9-9c0-4.9,4.1-8.9,9-8.9s8.9,4.1,8.9,9C43,19.2,39,23.2,34.1,23.2z M41.6,14.3
	c0-4.1-3.4-7.5-7.5-7.5s-7.5,3.4-7.5,7.5s3.4,7.5,7.5,7.5S41.6,18.4,41.6,14.3z"/>
<path class="st2" d="M14.2,23.2c-4.9,0-9-4.1-8.9-9c0-4.9,4.1-8.9,9-8.9s8.9,4.1,8.9,9S19.1,23.2,14.2,23.2z M21.7,14.3
	c0-4.1-3.4-7.5-7.5-7.5s-7.5,3.4-7.5,7.4c0,4.1,3.4,7.5,7.5,7.5C18.3,21.8,21.7,18.4,21.7,14.3z"/>
<path class="st1" d="M82.4,20.6c1.3,0,2.5,0,3.7,0s2.5,0,3.7,0c0.5,0,0.8,0.3,0.8,0.8c0,0.1,0,0.2,0,0.3c0,0.5-0.3,0.7-0.8,0.7
	c-1.6,0-3.3,0-4.9,0c-1.3,0-2.6,0-3.9,0c-0.6,0-0.8-0.2-0.8-0.8c0-5.1,0-10.2,0-15.3c0-0.5,0.2-0.8,0.8-0.8c0.2,0,0.4,0,0.6,0
	c0.5,0,0.8,0.3,0.8,0.8c0,2.2,0,4.3,0,6.4c0,2.5,0,4.9,0,7.4C82.4,20.3,82.4,20.4,82.4,20.6z"/>
<path class="st3" d="M36.5,1.5c3.6,0,7.2,0,10.8,0c0,3.6,0,7.2,0,10.8c-0.4,0-0.8,0-1.3,0c0-3.2,0-6.3,0-9.5c-3.2,0-6.4,0-9.5,0
	C36.5,2.3,36.5,1.9,36.5,1.5z"/>
<path class="st3" d="M1,26.1c0-3.6,0-7.2,0-10.7c0.4,0,0.9,0,1.3,0c0,3.2,0,6.3,0,9.5c3.2,0,6.4,0,9.5,0c0,0.5,0,0.9,0,1.4
	C8.3,26.1,4.7,26.1,1,26.1z"/>
<path class="st4" d="M11.9,1.5c0,0.4,0,0.8,0,1.3c-3.2,0-6.3,0-9.5,0c0,3.2,0,6.4,0,9.5c-0.4,0-0.8,0-1.3,0c0-3.6,0-7.2,0-10.8
	C4.6,1.5,8.2,1.5,11.9,1.5z"/>
<path class="st4" d="M46,24.9c0-3.2,0-6.4,0-9.5c0.4,0,0.8,0,1.3,0c0,3.6,0,7.2,0,10.8c-3.6,0-7.2,0-10.7,0c0-0.4,0-0.8,0-1.3
	C39.8,24.9,42.9,24.9,46,24.9z"/>
<path class="st5" d="M41.6,14.3c0,4.1-3.4,7.5-7.5,7.5s-7.5-3.4-7.5-7.5s3.4-7.5,7.5-7.5C38.2,6.8,41.6,10.2,41.6,14.3z M38.3,9.8
	L38.3,9.8C38.4,9.8,38.3,9.8,38.3,9.8c-1-1.1-2.4-1.7-3.9-1.8c-3.9-0.2-7,3.1-6.5,7c0.3,2.9,2.8,5.2,5.7,5.3
	c4.2,0.2,7.3-3.5,6.4-7.6c-0.1-0.7-0.5-1.4-0.9-2.1c0,0.1,0,0.3,0,0.3c0,0.7-0.5,1.1-1.1,1.2c-0.7,0.1-1.2-0.4-1.4-1
	C36.5,10.4,37.3,9.6,38.3,9.8z"/>
<path class="st5" d="M21.7,14.3c0,4.1-3.4,7.5-7.5,7.5s-7.5-3.4-7.5-7.5s3.4-7.5,7.5-7.4C18.3,6.8,21.7,10.2,21.7,14.3z M18.5,9.8
	c-2-2.1-5.8-2.5-8.4-0.1C7.5,12,7.3,16,9.7,18.5c2.4,2.6,6.4,2.6,8.9,0.3c2.5-2.4,2.2-6,0.9-7.7c-0.1,0.9-0.6,1.4-1.4,1.4
	c-0.7-0.1-1.2-0.6-1.1-1.3C16.9,10.3,17.4,9.8,18.5,9.8z"/>
<path class="st6" d="M38.3,9.8c-1-0.3-1.8,0.6-1.6,1.5c0.1,0.6,0.7,1.1,1.4,1c0.6-0.1,1.1-0.5,1.1-1.2c0-0.1,0-0.1,0-0.3
	c0.5,0.7,0.7,1.4,0.9,2.1c0.9,4.1-2.2,7.8-6.4,7.6c-2.9-0.1-5.4-2.4-5.7-5.3c-0.5-3.9,2.6-7.2,6.5-7C35.9,8.1,37.3,8.7,38.3,9.8
	C38.3,9.8,38.3,9.8,38.3,9.8z"/>
<path class="st6" d="M38.3,9.8C38.3,9.8,38.4,9.8,38.3,9.8C38.3,9.8,38.3,9.8,38.3,9.8C38.3,9.8,38.3,9.8,38.3,9.8z"/>
<path class="st6" d="M18.5,9.8c-1,0-1.6,0.5-1.6,1.3c0,0.7,0.5,1.2,1.1,1.3c0.7,0.1,1.3-0.5,1.4-1.4c1.4,1.7,1.6,5.3-0.9,7.7
	s-6.4,2.3-8.9-0.3C7.3,16,7.5,12,10.1,9.7C12.7,7.3,16.5,7.7,18.5,9.8z"/>
</svg>
