<?xml version="1.0" encoding="utf-8"?>
<!-- Generator: Adobe Illustrator 25.2.0, SVG Export Plug-In . SVG Version: 6.00 Build 0)  -->
<svg version="1.1" id="Layer_1" xmlns="http://www.w3.org/2000/svg" xmlns:xlink="http://www.w3.org/1999/xlink" x="0px" y="0px"
	 viewBox="0 0 179 48" style="enable-background:new 0 0 179 48;" xml:space="preserve">
<style type="text/css">
	.st0{fill:#FDFEFE;}
	.st1{fill:#FFFFFF;}
	.st2{fill:#09040A;}
	.st3{fill:#11B0CC;}
	.st4{fill:#0BAECA;}
	.st5{fill:#FBFCFC;}
	.st6{fill:#0CAFCA;}
</style>
<path class="st0" d="M84.4,17.4c0.2,0.2,0.3,0.4,0.4,0.5c4.6,6,9.2,12,13.8,17.9c1.4,1.8,0.8,1.5,3,1.5c1,0,1.3-0.3,1.3-1.3
	c0-5.4,0-10.8,0-16.1c0-2.2,0-4.3,0-6.5c0-0.7-0.4-1.1-1.1-1.1c-0.3,0-0.6,0-0.9,0c-1,0-1.3,0.3-1.3,1.4c0,5.8,0,11.7,0,17.5
	c0,0.2,0,0.3,0,0.6c-0.2-0.2-0.3-0.3-0.4-0.4c-4.5-5.9-9-11.7-13.6-17.6c-1.4-1.7-0.8-1.5-3.1-1.5c-1.2,0-1.4,0.3-1.4,1.5
	c0,7.4,0,14.8,0,22.1c0,1.2,0.3,1.5,1.4,1.5c0.2,0,0.3,0,0.5,0c1,0,1.3-0.3,1.3-1.3c0-6,0-12,0-18C84.4,17.9,84.4,17.7,84.4,17.4z
	 M156.2,15.5c0.1,0.2,0.2,0.4,0.2,0.5c1.3,3.3,2.7,6.6,4,9.9c1.4,3.5,2.9,7.1,4.3,10.6c0.3,0.7,0.5,0.9,1.3,0.9c0.4,0,0.8,0,1.1,0
	c1,0,1.4-0.7,1-1.5c-3.2-7.6-6.4-15.2-9.6-22.7c-0.2-0.5-0.6-0.8-1.2-0.8c-0.8,0-1.5,0-2.3,0c-0.7,0-1.1,0.2-1.4,0.9
	c-2.2,5.1-4.3,10.3-6.5,15.4c-1,2.4-2,4.8-3.1,7.2c-0.4,0.9,0.1,1.5,1,1.5c0.4,0,0.8,0,1.1,0c0.7,0,1.1-0.3,1.3-0.9
	c0.6-1.4,1.2-2.9,1.8-4.3c0.1-0.3,0.3-0.4,0.7-0.4c2.3,0,4.6,0,6.9,0c1,0,1.3-0.3,1.3-1.4c0-1-0.3-1.4-1.3-1.4c-2,0-3.9,0-5.9,0
	c-0.1,0-0.3,0-0.5,0C152.6,24.5,154.4,20,156.2,15.5z M109.2,15.1c1.1,0,2.2,0,3.2,0c3.1,0,6.3,0,9.4,0c0.5,0,1-0.1,1.2-0.7
	c0.1-0.3,0.1-0.6,0.1-0.8c0-0.9-0.4-1.2-1.2-1.3c-0.9,0-1.9,0-2.8,0c-3.9,0-7.9,0-11.8,0c-1,0-1.3,0.3-1.3,1.3s0,2,0,2.9
	c0,6.5,0,13,0,19.5c0,0.9,0.3,1.3,1.1,1.3c5,0,10.1,0,15.1,0c0.3,0,0.6-0.2,0.8-0.4c0.4-0.6,0.3-1.2,0.1-1.8
	c-0.2-0.5-0.7-0.6-1.2-0.6c-4,0-8,0-12,0c-0.2,0-0.4,0-0.6,0c0-2.6,0-5.1,0-7.6c0.2,0,0.4,0,0.6,0c2.7,0,5.4,0,8.1,0
	c0.8,0,1.2-0.4,1.2-1.2c0-0.1,0-0.3,0-0.4c0-0.9-0.3-1.2-1.2-1.2c-2.7,0-5.4,0-8.1,0c-0.2,0-0.4,0-0.6,0
	C109.2,21.1,109.2,18.1,109.2,15.1z M58.1,38.4c7.3,0,13.3-5.9,13.3-13.2s-5.9-13.3-13.2-13.3s-13.3,5.9-13.3,13.2
	C44.8,32.4,50.8,38.4,58.1,38.4z M28.6,38.4c7.3,0,13.3-5.9,13.3-13.2S36,11.9,28.7,11.9s-13.3,5.9-13.3,13.2S21.3,38.4,28.6,38.4z
	 M129.6,34.5c0-0.2,0-0.4,0-0.6c0-3.7,0-7.3,0-11c0-3.2,0-6.3,0-9.5c0-0.8-0.4-1.2-1.2-1.2c-0.3,0-0.6,0-0.9,0
	c-0.8,0-1.2,0.3-1.2,1.2c0,7.6,0,15.1,0,22.7c0,0.8,0.4,1.2,1.2,1.2c1.9,0,3.9,0,5.8,0c2.4,0,4.9,0,7.3,0c0.8,0,1.1-0.4,1.2-1.1
	c0-0.1,0-0.3,0-0.4c0-0.8-0.4-1.2-1.2-1.2c-1.8,0-3.7,0-5.5,0C133.2,34.5,131.4,34.5,129.6,34.5z M61.7,6.2c0,0.7,0,1.3,0,2
	c4.7,0,9.4,0,14.1,0c0,4.7,0,9.3,0,14c0.7,0,1.3,0,1.9,0c0-5.3,0-10.7,0-16C72.4,6.2,67.1,6.2,61.7,6.2z M9.2,42.7
	c5.4,0,10.7,0,16,0c0-0.7,0-1.3,0-2c-4.7,0-9.4,0-14.1,0c0-4.7,0-9.3,0-14c-0.7,0-1.3,0-1.9,0C9.2,32.1,9.2,37.4,9.2,42.7z
	 M25.2,6.2c-5.4,0-10.7,0-15.9,0c0,5.4,0,10.7,0,16c0.7,0,1.3,0,1.9,0c0-4.7,0-9.4,0-14.1c4.7,0,9.3,0,14,0
	C25.2,7.4,25.2,6.8,25.2,6.2z M75.8,40.9c-4.7,0-9.4,0-14,0c0,0.7,0,1.3,0,1.9c5.3,0,10.6,0,15.9,0c0-5.4,0-10.7,0-16
	c-0.7,0-1.3,0-1.9,0C75.8,31.4,75.8,36.1,75.8,40.9z"/>
<path class="st1" d="M84.4,17.4c0,0.3,0,0.5,0,0.7c0,6,0,12,0,18c0,1-0.3,1.3-1.3,1.3c-0.2,0-0.3,0-0.5,0c-1.2,0-1.4-0.3-1.4-1.5
	c0-7.4,0-14.8,0-22.1c0-1.2,0.3-1.5,1.4-1.5c2.3,0,1.7-0.2,3.1,1.5c4.5,5.8,9,11.7,13.6,17.6c0.1,0.1,0.2,0.2,0.4,0.4
	c0-0.3,0-0.5,0-0.6c0-5.8,0-11.7,0-17.5c0-1,0.3-1.3,1.3-1.4c0.3,0,0.6,0,0.9,0c0.7,0,1.1,0.4,1.1,1.1c0,2.2,0,4.3,0,6.5
	c0,5.4,0,10.8,0,16.1c0,1-0.3,1.3-1.3,1.3c-2.2,0-1.7,0.3-3-1.5c-4.6-6-9.2-12-13.8-17.9C84.7,17.8,84.6,17.6,84.4,17.4z"/>
<path class="st1" d="M156.2,15.5c-1.9,4.5-3.7,9-5.5,13.4c0.2,0,0.4,0,0.5,0c2,0,3.9,0,5.9,0c1,0,1.3,0.4,1.3,1.4s-0.3,1.4-1.3,1.4
	c-2.3,0-4.6,0-6.9,0c-0.4,0-0.5,0.1-0.7,0.4c-0.6,1.4-1.2,2.9-1.8,4.3c-0.2,0.6-0.6,0.9-1.3,0.9c-0.4,0-0.8,0-1.1,0
	c-1,0-1.4-0.7-1-1.5c1-2.4,2-4.8,3.1-7.2c2.2-5.1,4.4-10.3,6.5-15.4c0.3-0.6,0.7-0.9,1.4-0.9c0.8,0,1.5,0,2.3,0
	c0.6,0,0.9,0.2,1.2,0.8c3.2,7.6,6.4,15.2,9.6,22.7c0.4,0.9-0.1,1.5-1,1.5c-0.4,0-0.8,0-1.1,0c-0.8,0-1-0.2-1.3-0.9
	c-1.4-3.5-2.9-7.1-4.3-10.6c-1.3-3.3-2.7-6.6-4-9.9C156.4,15.9,156.4,15.8,156.2,15.5z"/>
<path class="st1" d="M109.2,15.1c0,3,0,6,0,9.1c0.2,0,0.4,0,0.6,0c2.7,0,5.4,0,8.1,0c0.9,0,1.2,0.3,1.2,1.2c0,0.1,0,0.3,0,0.4
	c0,0.8-0.4,1.2-1.2,1.2c-2.7,0-5.4,0-8.1,0c-0.2,0-0.4,0-0.6,0c0,2.5,0,5.1,0,7.6c0.2,0,0.4,0,0.6,0c4,0,8,0,12,0c0.5,0,1,0,1.2,0.6
	s0.3,1.3-0.1,1.8c-0.2,0.2-0.5,0.4-0.8,0.4c-5,0-10.1,0-15.1,0c-0.8,0-1.1-0.4-1.1-1.3c0-6.5,0-13,0-19.5c0-1,0-2,0-2.9
	c0-1,0.3-1.3,1.3-1.3c3.9,0,7.9,0,11.8,0c0.9,0,1.9,0,2.8,0s1.2,0.4,1.2,1.3c0,0.3,0,0.6-0.1,0.8c-0.2,0.6-0.6,0.7-1.2,0.7
	c-3.1,0-6.3,0-9.4,0C111.5,15.1,110.4,15.1,109.2,15.1z"/>
<path class="st2" d="M58.1,38.4c-7.3,0-13.3-6-13.2-13.3c0-7.3,6-13.2,13.3-13.2s13.2,6,13.2,13.3C71.2,32.5,65.4,38.4,58.1,38.4z
	 M69.2,25.2c0-6.1-5-11.1-11.1-11.1S47,19.1,47,25.2s5,11.1,11.1,11.1S69.2,31.3,69.2,25.2z"/>
<path class="st2" d="M28.6,38.4c-7.3,0-13.3-6-13.2-13.3c0-7.3,6-13.2,13.3-13.2s13.2,6,13.2,13.3S35.9,38.4,28.6,38.4z M39.8,25.2
	c0-6.1-5-11.1-11.1-11.1s-11.1,5-11.1,11c0,6.1,5,11.1,11.1,11.1C34.8,36.3,39.8,31.3,39.8,25.2z"/>
<path class="st1" d="M129.6,34.5c1.9,0,3.7,0,5.5,0s3.7,0,5.5,0c0.8,0,1.2,0.4,1.2,1.2c0,0.1,0,0.3,0,0.4c0,0.8-0.4,1.1-1.2,1.1
	c-2.4,0-4.9,0-7.3,0c-1.9,0-3.9,0-5.8,0c-0.9,0-1.2-0.3-1.2-1.2c0-7.6,0-15.1,0-22.7c0-0.8,0.3-1.2,1.2-1.2c0.3,0,0.6,0,0.9,0
	c0.8,0,1.2,0.4,1.2,1.2c0,3.2,0,6.3,0,9.5c0,3.7,0,7.3,0,11C129.6,34.1,129.6,34.3,129.6,34.5z"/>
<path class="st3" d="M61.7,6.2c5.4,0,10.7,0,16,0c0,5.3,0,10.6,0,16c-0.6,0-1.2,0-1.9,0c0-4.7,0-9.3,0-14c-4.7,0-9.4,0-14.1,0
	C61.7,7.5,61.7,6.9,61.7,6.2z"/>
<path class="st3" d="M9.2,42.7c0-5.3,0-10.6,0-15.9c0.6,0,1.3,0,1.9,0c0,4.7,0,9.3,0,14c4.7,0,9.4,0,14.1,0c0,0.7,0,1.3,0,2
	C19.9,42.7,14.6,42.7,9.2,42.7z"/>
<path class="st4" d="M25.2,6.2c0,0.6,0,1.2,0,1.9c-4.7,0-9.3,0-14,0c0,4.7,0,9.4,0,14.1c-0.6,0-1.2,0-1.9,0c0-5.3,0-10.6,0-16
	C14.5,6.2,19.8,6.2,25.2,6.2z"/>
<path class="st4" d="M75.8,40.9c0-4.8,0-9.4,0-14.1c0.6,0,1.2,0,1.9,0c0,5.3,0,10.7,0,16c-5.3,0-10.6,0-15.9,0c0-0.6,0-1.2,0-1.9
	C66.5,40.9,71.1,40.9,75.8,40.9z"/>
<path class="st5" d="M69.2,25.2c0,6.1-5,11.1-11.1,11.1S47,31.3,47,25.2s5-11.1,11.1-11.1C64.2,14.1,69.2,19.1,69.2,25.2z
	 M64.2,18.6L64.2,18.6C64.5,18.6,64.4,18.6,64.2,18.6c-1.5-1.7-3.5-2.5-5.7-2.6c-5.8-0.3-10.3,4.6-9.6,10.4c0.5,4.3,4.2,7.7,8.5,7.9
	c6.2,0.3,10.8-5.2,9.5-11.2C66.8,22,66.2,21,65.5,20c0,0.2,0,0.4,0,0.5c0,1-0.8,1.7-1.7,1.8c-1,0.1-1.8-0.6-2-1.5
	C61.7,19.5,62.8,18.3,64.2,18.6z"/>
<path class="st5" d="M39.8,25.2c0,6.1-5,11.1-11.1,11.1s-11.1-5-11.1-11.1s5-11.1,11.1-11C34.8,14.1,39.8,19.1,39.8,25.2z M35,18.6
	c-3-3.1-8.6-3.7-12.4-0.2c-3.8,3.4-4.1,9.3-0.6,13c3.6,3.8,9.4,3.9,13.1,0.4c3.7-3.6,3.3-8.9,1.3-11.4c-0.1,1.3-0.9,2.1-2.1,2
	c-1-0.1-1.8-0.9-1.7-1.9C32.6,19.3,33.4,18.6,35,18.6z"/>
<path class="st6" d="M64.2,18.6c-1.5-0.4-2.6,0.9-2.4,2.2c0.2,0.9,1,1.6,2,1.5c0.9-0.1,1.7-0.8,1.7-1.8c0-0.1,0-0.2,0-0.5
	c0.7,1,1.1,2,1.4,3.1c1.4,6-3.3,11.5-9.5,11.2c-4.3-0.2-8-3.6-8.5-7.9c-0.7-5.8,3.8-10.6,9.6-10.4C60.8,16.1,62.8,16.9,64.2,18.6
	C64.4,18.6,64.4,18.6,64.2,18.6z"/>
<path class="st6" d="M64.4,18.5C64.4,18.6,64.5,18.6,64.4,18.5C64.4,18.6,64.4,18.6,64.4,18.5C64.4,18.6,64.4,18.6,64.4,18.5z"/>
<path class="st6" d="M35,18.6c-1.5,0-2.4,0.7-2.4,1.9c0,1,0.8,1.8,1.7,1.9c1.1,0.1,1.9-0.7,2.1-2c2,2.5,2.4,7.8-1.3,11.4
	s-9.5,3.4-13.1-0.4c-3.5-3.7-3.2-9.6,0.6-13C26.4,14.9,32,15.5,35,18.6z"/>
</svg>
