<?xml version="1.0" encoding="utf-8"?>
<!-- Generator: Adobe Illustrator 25.2.0, SVG Export Plug-In . SVG Version: 6.00 Build 0)  -->
<svg version="1.1" id="Layer_1" xmlns="http://www.w3.org/2000/svg" xmlns:xlink="http://www.w3.org/1999/xlink" x="0px" y="0px"
	 viewBox="0 0 1779 500" style="enable-background:new 0 0 1779 500;" xml:space="preserve">
<style type="text/css">
	.st0{fill:#FEFEFE;}
	.st1{fill:#070208;}
	.st2{fill:#0DAFCB;}
	.st3{fill:#FDFDFD;}
	.st4{fill:#0BAECA;}
</style>
<g>
	<path class="st0" d="M246.3,386.2c71.6-0.1,129.6-58.1,129.6-129.6c0-71.6-58.1-129.7-129.8-129.7c-71.6,0-129.6,58.1-129.6,129.6
		C116.5,328.1,174.6,386.2,246.3,386.2z M534.7,386.2c71.6,0,129.6-57.8,129.8-129.4c0.2-71.6-58-129.8-129.6-129.8
		c-71.7,0-129.8,58.1-129.8,129.7C405.1,328.1,463.2,386.1,534.7,386.2z M571.4,89.7c46.6,0,93,0,139.5,0c0,46,0,91.6,0,137.4
		c6.3,0,12.3,0,18.4,0c0-52.2,0-104.3,0-156c-52.7,0-105.3,0-157.9,0C571.4,77.3,571.4,83.3,571.4,89.7z M54.8,273.4
		c0,52.3,0,104.4,0,156.1c52.7,0,105.3,0,157.8,0c0-6.4,0-12.4,0-18.7c-46.5,0-92.9,0-139.4,0c0-46,0-91.6,0-137.4
		C66.9,273.4,60.9,273.4,54.8,273.4z M73.6,89c46.3,0,92.1,0,138,0c0-6.3,0-12.3,0-18.2c-52.4,0-104.6,0-156.6,0
		c0,52.4,0,104.6,0,156.9c6.4,0,12.4,0,18.6,0C73.6,181.4,73.6,135.4,73.6,89z M710.4,411.5c-46.3,0-92.1,0-138,0
		c0,6.3,0,12.3,0,18.2c52.4,0,104.6,0,156.6,0c0-52.4,0-104.6,0-156.9c-6.4,0-12.4,0-18.6,0C710.4,319.1,710.4,365.1,710.4,411.5z"
		/>
	<path class="st1" d="M246.3,386.2c-71.6,0.1-129.8-58-129.8-129.7c0-71.5,58-129.5,129.6-129.6c71.7,0,129.8,58,129.8,129.7
		C375.9,328.1,317.9,386.1,246.3,386.2z M246.1,366c60.2,0,109.5-49.1,109.6-109.1c0.1-60.5-48.9-109.8-109.3-109.9
		C186,147,136.7,196.2,136.7,256.5C136.6,316.8,185.8,366,246.1,366z"/>
	<path class="st1" d="M534.7,386.2c-71.5,0-129.6-58.1-129.6-129.6c0-71.6,58.1-129.7,129.8-129.7c71.6,0,129.8,58.3,129.6,129.8
		C664.3,328.3,606.3,386.2,534.7,386.2z M534.9,147.1c-60.2-0.1-109.5,49-109.6,109.1c-0.1,60.5,48.9,109.8,109.3,109.9
		c60.3,0.1,109.7-49,109.8-109.2C644.4,196.4,595.3,147.1,534.9,147.1z"/>
	<path class="st2" d="M571.4,89.7c0-6.4,0-12.3,0-18.7c52.6,0,105.2,0,157.9,0c0,51.8,0,103.8,0,156c-6,0-12.1,0-18.4,0
		c0-45.7,0-91.4,0-137.4C664.3,89.7,618,89.7,571.4,89.7z"/>
	<path class="st2" d="M54.8,273.4c6.1,0,12.1,0,18.3,0c0,45.8,0,91.5,0,137.4c46.6,0,92.9,0,139.4,0c0,6.3,0,12.3,0,18.7
		c-52.5,0-105,0-157.8,0C54.8,377.8,54.8,325.8,54.8,273.4z"/>
	<path class="st2" d="M73.6,89c0,46.5,0,92.5,0,138.6c-6.2,0-12.2,0-18.6,0c0-52.3,0-104.5,0-156.9c52,0,104.2,0,156.6,0
		c0,6,0,12,0,18.2C165.7,89,119.8,89,73.6,89z"/>
	<path class="st2" d="M710.4,411.5c0-46.5,0-92.5,0-138.7c6.2,0,12.2,0,18.6,0c0,52.3,0,104.5,0,156.9c-51.9,0-104.2,0-156.6,0
		c0-6,0-12,0-18.2C618.3,411.5,664.2,411.5,710.4,411.5z"/>
	<path class="st3" d="M246.1,366c-60.3,0-109.5-49.2-109.5-109.5c0-60.4,49.3-109.6,109.8-109.5c60.4,0.1,109.4,49.3,109.3,109.9
		C355.7,317,306.3,366.1,246.1,366z M301.9,193.3c-27.5-25.5-77.4-30.9-112.6,1.1c-34.8,31.6-36.8,86.3-4.5,120.3
		c32.8,34.5,87.2,35.6,120.8,2.6c33.3-32.8,30-80,12.5-104.9c-1.6,11-9.6,18-19.9,17.1c-9.4-0.8-16.7-9-16.5-18.6
		C281.9,200.7,289.7,193.8,301.9,193.3z"/>
	<path class="st3" d="M534.9,147.1c60.4,0.1,109.5,49.3,109.4,109.8C644.2,317,594.9,366.1,534.6,366
		c-60.4-0.1-109.4-49.4-109.3-109.9C425.4,196.1,474.7,147,534.9,147.1z M591.1,194.3c-26.8-25.8-75.3-31.8-110.5-2.7
		c-36.9,30.6-40.6,84.2-10.9,119.5c30.5,36.2,83.5,40.1,118.7,10.8c37.1-30.8,37.4-80.5,17.8-109.5c-1.8,12-9.4,18.9-19.9,18.1
		c-9.4-0.7-16.8-9-16.6-18.6C570,201.4,577.7,194.9,591.1,194.3z"/>
	<path class="st4" d="M301.9,193.3c-12.2,0.5-20,7.4-20.2,17.6c-0.2,9.6,7.1,17.9,16.5,18.6c10.2,0.8,18.2-6.1,19.9-17.1
		c17.5,24.9,20.9,72-12.5,104.9c-33.6,33-88,31.9-120.8-2.6c-32.3-34-30.2-88.7,4.5-120.3C224.5,162.4,274.4,167.8,301.9,193.3z"/>
	<path class="st4" d="M591.1,194.3c-13.4,0.6-21.1,7.1-21.3,17.7c-0.2,9.6,7.2,17.9,16.6,18.6c10.5,0.8,18.1-6.1,19.9-18.1
		c19.6,29,19.2,78.7-17.8,109.5c-35.2,29.2-88.2,25.4-118.7-10.8c-29.7-35.3-26-89,10.9-119.5C515.9,162.5,564.4,168.5,591.1,194.3z
		"/>
</g>
<g>
	<path d="M975.8,374.9L826.4,179.7v189.1c0,5.5-4.5,10-10,10h-12.5c-5.5,0-10-4.5-10-10V139.2c0-5.5,4.5-10,10-10h18.4
		c3.1,0,6,1.4,7.9,3.9l147.4,191.1v-185c0-5.5,4.5-10,10-10h12.5c5.5,0,10,4.5,10,10v229.7c0,5.5-4.5,10-10,10h-16.4
		C980.6,378.9,977.7,377.4,975.8,374.9z"/>
	<path d="M1051.4,378.6c-5.5,0-9.9-4.4-9.9-9.9V139.1c0-5.5,4.5-10,10-10h151.2c5.6,0,10.1,4.5,10.1,10.1v7.6
		c0,5.6-4.5,10.1-10.1,10.1H1074v90.3h88.3c5.6,0,10.1,4.5,10.1,10.1v7.6c0,5.6-4.5,10.1-10.1,10.1H1074v76.3h128.6
		c5.6,0,10.1,4.5,10.1,10.1v7.6c0,5.6-4.5,10.1-10.1,10.1L1051.4,378.6z"/>
	<path d="M1244,368.9V139.1c0-5.5,4.4-9.9,9.9-9.9h12.7c5.5,0,9.9,4.4,9.9,9.9v212.1h111.6c5.5,0,9.9,4.4,9.9,9.9v7.9
		c0,5.5-4.4,9.9-9.9,9.9H1254C1248.5,378.9,1244,374.4,1244,368.9z"/>
	<path d="M1652.1,378.9h-15.5c-4,0-7.7-2.4-9.2-6.2L1541.8,161l-55.2,134.8h66.4c5.5,0,10,4.5,10,10v7.3c0,5.5-4.5,10-10,10h-76.2
		l-20.6,49.6c-1.5,3.7-5.2,6.2-9.2,6.2h-15.5c-7.2,0-12-7.3-9.2-13.9l96.9-229.7c1.6-3.7,5.2-6.1,9.2-6.1h27.1c4,0,7.7,2.4,9.2,6.1
		l96.6,229.7C1664.1,371.6,1659.3,378.9,1652.1,378.9z"/>
</g>
<g>
	<path d="M1234.5,434.8v-18.3c0-0.4,0.4-0.8,0.8-0.8h7.6c4.2,0,6.5,3.5,6.5,6.8s-2.4,6.8-6.5,6.8h-5.8v5.6c0,0.4-0.4,0.8-0.8,0.8h-1
		C1234.8,435.6,1234.5,435.2,1234.5,434.8z M1246.7,422.4c0-2.2-1.7-4.6-4.2-4.6h-5.5v9.2h5.5C1245,427,1246.7,424.7,1246.7,422.4z"
		/>
	<path d="M1251.3,425.6c0-5.9,4.2-10.3,10.4-10.3c6.2,0,10.4,4.4,10.4,10.3c0,5.9-4.2,10.3-10.4,10.3
		C1255.5,435.9,1251.3,431.5,1251.3,425.6z M1269.4,425.6c0-4.7-3-8.1-7.7-8.1c-4.7,0-7.7,3.4-7.7,8.1c0,4.6,3,8.1,7.7,8.1
		C1266.4,433.7,1269.4,430.2,1269.4,425.6z"/>
	<path d="M1290.2,435.1l-4.4-10.9l-4.4,10.9c-0.1,0.3-0.4,0.5-0.7,0.5h-1.7c-0.4,0-0.7-0.2-0.8-0.6l-5.5-18.4c-0.2-0.5,0.2-1,0.8-1
		h1.2c0.4,0,0.7,0.2,0.8,0.6l4.5,16.1l4.6-11.4c0.1-0.3,0.4-0.5,0.7-0.5h1.1c0.3,0,0.6,0.2,0.7,0.5l4.6,11.4l4.4-16.1
		c0.1-0.3,0.4-0.6,0.8-0.6h1.2c0.5,0,0.9,0.5,0.8,1l-5.5,18.4c-0.1,0.3-0.4,0.6-0.8,0.6h-1.7
		C1290.7,435.6,1290.4,435.4,1290.2,435.1z"/>
	<path d="M1302.3,435.6c-0.4,0-0.8-0.4-0.8-0.8v-18.3c0-0.4,0.4-0.8,0.8-0.8h12.1c0.4,0,0.8,0.4,0.8,0.8v0.6c0,0.4-0.4,0.8-0.8,0.8
		h-10.3v7.2h7.1c0.4,0,0.8,0.4,0.8,0.8v0.6c0,0.4-0.4,0.8-0.8,0.8h-7.1v6.1h10.3c0.4,0,0.8,0.4,0.8,0.8v0.6c0,0.4-0.4,0.8-0.8,0.8
		L1302.3,435.6z"/>
	<path d="M1329.6,435.3l-5.1-6.1h-4.2v5.6c0,0.4-0.4,0.8-0.8,0.8h-1c-0.4,0-0.8-0.4-0.8-0.8v-18.4c0-0.4,0.4-0.8,0.8-0.8h7.6
		c3.8,0,6.6,3.1,6.6,6.8c0,3.6-2.6,6.3-5.5,6.6l4.5,5.3c0.4,0.5,0.1,1.3-0.6,1.3h-1C1329.9,435.6,1329.7,435.5,1329.6,435.3z
		 M1330,422.4c0-2.3-1.7-4.6-4.2-4.6h-5.5v9.2h5.5C1328.3,427,1330,424.7,1330,422.4z"/>
	<path d="M1336,435.6c-0.4,0-0.8-0.4-0.8-0.8v-18.3c0-0.4,0.4-0.8,0.8-0.8h12.1c0.4,0,0.8,0.4,0.8,0.8v0.6c0,0.4-0.4,0.8-0.8,0.8
		h-10.3v7.2h7.1c0.4,0,0.8,0.4,0.8,0.8v0.6c0,0.4-0.4,0.8-0.8,0.8h-7.1v6.1h10.3c0.4,0,0.8,0.4,0.8,0.8v0.6c0,0.4-0.4,0.8-0.8,0.8
		L1336,435.6z"/>
	<path d="M1369.2,425.6c0,5.7-4.2,10-10.7,10h-6.3c-0.4,0-0.8-0.4-0.8-0.8v-13.1c0-0.4,0.4-0.8,0.8-0.8h1c0.4,0,0.8,0.4,0.8,0.8
		v11.7h4.5c5.1,0,8-3.5,8-7.8c0-4.3-2.9-7.8-8-7.8h-6.3c-0.4,0-0.8-0.4-0.8-0.8v-0.6c0-0.4,0.4-0.8,0.8-0.8h6.3
		C1365,415.6,1369.2,420,1369.2,425.6z"/>
	<path d="M1396.7,430.2c0,3.2-2.2,5.4-6,5.4h-9.2c-0.2,0-0.4-0.2-0.4-0.4V416c0-0.2,0.2-0.4,0.4-0.4h9c3.6,0,5.9,2.1,5.9,5.1
		c0,2.5-1.8,4.2-3.7,4.6C1394.8,425.6,1396.7,427.8,1396.7,430.2z M1394,429.9c0-1.8-1.3-3.4-3.9-3.4h-3.1c-0.2,0-0.3-0.2-0.3-0.3
		v-1.5c0-0.2,0.2-0.3,0.3-0.3h2.9c2.4,0,3.6-1.4,3.6-3.2c0-1.8-1.3-3.2-3.6-3.2h-6.3v15.5h6.4C1392.5,433.4,1394,432.1,1394,429.9z"
		/>
	<path d="M1404.3,434.8v-6.1l-7.5-11.9c-0.3-0.5,0-1.2,0.7-1.2h0.9c0.3,0,0.5,0.1,0.7,0.4l6.5,10.5l6.5-10.5
		c0.1-0.2,0.4-0.4,0.7-0.4h0.9c0.6,0,1,0.7,0.7,1.2l-7.4,11.9v6.1c0,0.4-0.4,0.8-0.8,0.8h-1C1404.6,435.6,1404.3,435.2,1404.3,434.8
		z"/>
	<path d="M1444.1,435.6h-1.2c-0.3,0-0.6-0.2-0.7-0.5l-6.8-16.9l-4.4,10.8h5.3c0.4,0,0.8,0.4,0.8,0.8v0.6c0,0.4-0.4,0.8-0.8,0.8h-6.1
		l-1.6,4c-0.1,0.3-0.4,0.5-0.7,0.5h-1.2c-0.6,0-1-0.6-0.7-1.1l7.8-18.4c0.1-0.3,0.4-0.5,0.7-0.5h2.2c0.3,0,0.6,0.2,0.7,0.5l7.7,18.4
		C1445,435,1444.6,435.6,1444.1,435.6z"/>
	<path d="M1459.1,435.3l-8.4-8l-1.4,1.6v5.9c0,0.4-0.4,0.8-0.8,0.8h-1c-0.4,0-0.8-0.4-0.8-0.8v-18.4c0-0.4,0.4-0.8,0.8-0.8h1
		c0.4,0,0.8,0.4,0.8,0.8v9.5l9-10c0.2-0.2,0.4-0.3,0.6-0.3h1.1c0.7,0,1.1,0.8,0.6,1.3l-8.1,8.8l9,8.5c0.5,0.5,0.1,1.3-0.6,1.3h-1.1
		C1459.5,435.6,1459.3,435.5,1459.1,435.3z"/>
	<path d="M1473.5,434.8v-18.4c0-0.4,0.4-0.8,0.8-0.8h1c0.4,0,0.8,0.4,0.8,0.8v18.4c0,0.4-0.4,0.8-0.8,0.8h-1
		C1473.8,435.6,1473.5,435.2,1473.5,434.8z"/>
	<path d="M1485.3,434.8v-16.9h-5.7c-0.4,0-0.8-0.4-0.8-0.8v-0.6c0-0.4,0.4-0.8,0.8-0.8h13.9c0.4,0,0.8,0.4,0.8,0.8v0.6
		c0,0.4-0.4,0.8-0.8,0.8h-5.7v16.9c0,0.4-0.4,0.8-0.8,0.8h-1C1485.7,435.6,1485.3,435.2,1485.3,434.8z"/>
	<path d="M1521.6,430.1c0,2.9-2.1,5.9-7.7,5.9c-2.7,0-4.9-0.7-6.6-1.9c-0.4-0.3-0.5-0.8-0.2-1.2l0.6-0.7c0.3-0.3,0.7-0.4,1.1-0.1
		c1.3,0.9,3.1,1.7,5.2,1.7c3.7,0,4.9-1.9,4.9-3.5c0-5.1-12.4-2.3-12.4-9.4c0-3.3,3.1-5.6,7.2-5.6c1.8,0,3.3,0.3,4.6,0.9
		c0.5,0.2,0.6,0.8,0.3,1.2l-0.5,0.6c-0.2,0.3-0.6,0.3-0.9,0.2c-1.1-0.5-2.4-0.7-3.7-0.7c-2.5,0-4.3,1.3-4.3,3.2
		C1509.2,425.2,1521.6,422.6,1521.6,430.1z"/>
	<path d="M1524.1,425.6c0-5.9,4.2-10.3,10.4-10.3c6.2,0,10.4,4.4,10.4,10.3c0,5.9-4.2,10.3-10.4,10.3
		C1528.3,435.9,1524.1,431.5,1524.1,425.6z M1542.2,425.6c0-4.7-3-8.1-7.7-8.1c-4.7,0-7.7,3.4-7.7,8.1c0,4.6,3,8.1,7.7,8.1
		C1539.2,433.7,1542.2,430.2,1542.2,425.6z"/>
	<path d="M1547.4,434.8v-18.4c0-0.4,0.4-0.8,0.8-0.8h1c0.4,0,0.8,0.4,0.8,0.8v17h8.9c0.4,0,0.8,0.4,0.8,0.8v0.6
		c0,0.4-0.4,0.8-0.8,0.8h-10.7C1547.8,435.6,1547.4,435.2,1547.4,434.8z"/>
	<path d="M1560,427.8v-11.4c0-0.4,0.4-0.8,0.8-0.8h1c0.4,0,0.8,0.4,0.8,0.8v11.3c0,3.7,1.3,6,5.1,6c3.9,0,5.1-2.3,5.1-6v-11.3
		c0-0.4,0.4-0.8,0.8-0.8h1c0.4,0,0.8,0.4,0.8,0.8v11.4c0,5-2.1,8.1-7.8,8.1C1562.1,435.9,1560,432.7,1560,427.8z"/>
	<path d="M1584.8,434.8v-16.9h-5.7c-0.4,0-0.8-0.4-0.8-0.8v-0.6c0-0.4,0.4-0.8,0.8-0.8h13.9c0.4,0,0.8,0.4,0.8,0.8v0.6
		c0,0.4-0.4,0.8-0.8,0.8h-5.7v16.9c0,0.4-0.4,0.8-0.8,0.8h-1C1585.2,435.6,1584.8,435.2,1584.8,434.8z"/>
	<path d="M1596.8,434.8v-18.4c0-0.4,0.4-0.8,0.8-0.8h1c0.4,0,0.8,0.4,0.8,0.8v18.4c0,0.4-0.4,0.8-0.8,0.8h-1
		C1597.1,435.6,1596.8,435.2,1596.8,434.8z"/>
	<path d="M1601.8,425.6c0-5.9,4.2-10.3,10.4-10.3c6.2,0,10.4,4.4,10.4,10.3c0,5.9-4.2,10.3-10.4,10.3
		C1606,435.9,1601.8,431.5,1601.8,425.6z M1619.9,425.6c0-4.7-3-8.1-7.7-8.1c-4.7,0-7.7,3.4-7.7,8.1c0,4.6,3,8.1,7.7,8.1
		C1616.9,433.7,1619.9,430.2,1619.9,425.6z"/>
	<path d="M1639.7,435.3l-12-15.6v15.1c0,0.4-0.4,0.8-0.8,0.8h-1c-0.4,0-0.8-0.4-0.8-0.8v-18.4c0-0.4,0.4-0.8,0.8-0.8h1.5
		c0.2,0,0.5,0.1,0.6,0.3l11.8,15.3v-14.8c0-0.4,0.4-0.8,0.8-0.8h1c0.4,0,0.8,0.4,0.8,0.8v18.4c0,0.4-0.4,0.8-0.8,0.8h-1.3
		C1640.1,435.6,1639.8,435.5,1639.7,435.3z"/>
	<path d="M1660,430.1c0,2.9-2.1,5.9-7.7,5.9c-2.7,0-4.9-0.7-6.6-1.9c-0.4-0.3-0.5-0.8-0.2-1.2l0.6-0.7c0.3-0.3,0.7-0.4,1.1-0.1
		c1.3,0.9,3.1,1.7,5.2,1.7c3.7,0,4.9-1.9,4.9-3.5c0-5.1-12.4-2.3-12.4-9.4c0-3.3,3.1-5.6,7.2-5.6c1.8,0,3.3,0.3,4.6,0.9
		c0.5,0.2,0.6,0.8,0.3,1.2l-0.5,0.6c-0.2,0.3-0.6,0.3-0.9,0.2c-1.1-0.5-2.4-0.7-3.7-0.7c-2.5,0-4.3,1.3-4.3,3.2
		C1647.6,425.2,1660,422.6,1660,430.1z"/>
</g>
</svg>
