<?xml version="1.0" encoding="utf-8"?>
<!-- Generator: Adobe Illustrator 25.2.0, SVG Export Plug-In . SVG Version: 6.00 Build 0)  -->
<svg version="1.1" id="Layer_1" xmlns="http://www.w3.org/2000/svg" xmlns:xlink="http://www.w3.org/1999/xlink" x="0px" y="0px"
	 viewBox="0 0 1778 500" style="enable-background:new 0 0 1778 500;" xml:space="preserve">
<style type="text/css">
	.st0{fill:#FEFEFE;}
	.st1{fill:#070208;}
	.st2{fill:#909191;}
	.st3{fill:#FDFDFD;}
	.st4{fill:#707070;}
</style>
<g>
	<path class="st0" d="M274.9,383.4c71.6-0.1,129.6-58.1,129.6-129.6c0-71.6-58.1-129.7-129.8-129.7c-71.6,0-129.6,58.1-129.6,129.6
		C145.1,325.2,203.2,383.4,274.9,383.4z M563.3,383.4c71.6,0,129.6-57.8,129.8-129.4c0.2-71.6-58-129.8-129.6-129.8
		c-71.7,0-129.8,58.1-129.8,129.7C433.7,325.2,491.8,383.2,563.3,383.4z M600,86.8c46.6,0,93,0,139.5,0c0,46,0,91.6,0,137.4
		c6.3,0,12.3,0,18.4,0c0-52.2,0-104.3,0-156c-52.7,0-105.3,0-157.9,0C600,74.4,600,80.4,600,86.8z M83.4,270.5
		c0,52.3,0,104.4,0,156.1c52.7,0,105.3,0,157.8,0c0-6.4,0-12.4,0-18.7c-46.5,0-92.9,0-139.4,0c0-46,0-91.6,0-137.4
		C95.5,270.5,89.5,270.5,83.4,270.5z M102.2,86.1c46.3,0,92.1,0,138,0c0-6.3,0-12.3,0-18.2c-52.4,0-104.6,0-156.6,0
		c0,52.4,0,104.6,0,156.9c6.4,0,12.4,0,18.6,0C102.2,178.5,102.2,132.5,102.2,86.1z M739,408.6c-46.3,0-92.1,0-138,0
		c0,6.3,0,12.3,0,18.2c52.4,0,104.6,0,156.6,0c0-52.4,0-104.6,0-156.9c-6.4,0-12.4,0-18.6,0C739,316.2,739,362.2,739,408.6z"/>
	<path class="st1" d="M274.9,383.4c-71.6,0.1-129.8-58-129.8-129.7c0-71.5,58-129.5,129.6-129.6c71.7,0,129.8,58,129.8,129.7
		C404.5,325.2,346.5,383.2,274.9,383.4z M274.7,363.1c60.2,0,109.5-49.1,109.6-109.1c0.1-60.5-48.9-109.8-109.3-109.9
		c-60.4,0-109.7,49.2-109.7,109.5C165.2,313.9,214.4,363.1,274.7,363.1z"/>
	<path class="st1" d="M563.3,383.4c-71.5,0-129.6-58.1-129.6-129.6c0-71.6,58.1-129.7,129.8-129.7c71.6,0,129.8,58.3,129.6,129.8
		C692.9,325.4,634.9,383.4,563.3,383.4z M563.5,144.2c-60.2-0.1-109.5,49-109.6,109.1c-0.1,60.5,48.9,109.8,109.3,109.9
		c60.3,0.1,109.7-49,109.8-109.2C673,193.5,623.9,144.2,563.5,144.2z"/>
	<path class="st2" d="M600,86.8c0-6.4,0-12.3,0-18.7c52.6,0,105.2,0,157.9,0c0,51.8,0,103.8,0,156c-6,0-12.1,0-18.4,0
		c0-45.7,0-91.4,0-137.4C692.9,86.8,646.6,86.8,600,86.8z"/>
	<path class="st2" d="M83.4,270.5c6.1,0,12.1,0,18.3,0c0,45.8,0,91.5,0,137.4c46.6,0,92.9,0,139.4,0c0,6.3,0,12.3,0,18.7
		c-52.5,0-105,0-157.8,0C83.4,374.9,83.4,322.9,83.4,270.5z"/>
	<path class="st2" d="M102.2,86.1c0,46.5,0,92.5,0,138.6c-6.2,0-12.2,0-18.6,0c0-52.3,0-104.5,0-156.9c52,0,104.2,0,156.6,0
		c0,6,0,12,0,18.2C194.3,86.1,148.4,86.1,102.2,86.1z"/>
	<path class="st2" d="M739,408.6c0-46.5,0-92.5,0-138.7c6.2,0,12.2,0,18.6,0c0,52.3,0,104.5,0,156.9c-51.9,0-104.2,0-156.6,0
		c0-6,0-12,0-18.2C646.9,408.6,692.8,408.6,739,408.6z"/>
	<path class="st3" d="M274.7,363.1c-60.3,0-109.5-49.2-109.5-109.5c0-60.4,49.3-109.6,109.8-109.5c60.4,0.1,109.4,49.3,109.3,109.9
		C384.3,314.1,334.9,363.2,274.7,363.1z M330.5,190.4c-27.5-25.5-77.4-30.9-112.6,1.1c-34.8,31.6-36.8,86.3-4.5,120.3
		c32.8,34.5,87.2,35.6,120.8,2.6c33.3-32.8,30-80,12.5-104.9c-1.6,11-9.6,18-19.9,17.1c-9.4-0.8-16.7-9-16.5-18.6
		C310.5,197.8,318.3,190.9,330.5,190.4z"/>
	<path class="st3" d="M563.5,144.2c60.4,0.1,109.5,49.3,109.4,109.8c-0.1,60.1-49.4,109.2-109.7,109.1
		c-60.4-0.1-109.4-49.4-109.3-109.9C454,193.2,503.3,144.1,563.5,144.2z M619.7,191.4c-26.8-25.8-75.3-31.8-110.5-2.7
		c-36.9,30.6-40.6,84.2-10.9,119.5c30.5,36.2,83.5,40.1,118.7,10.8c37.1-30.8,37.4-80.5,17.8-109.5c-1.8,12-9.4,18.9-19.9,18.1
		c-9.4-0.7-16.8-9-16.6-18.6C598.6,198.5,606.3,192,619.7,191.4z"/>
	<path class="st4" d="M330.5,190.4c-12.2,0.5-20,7.4-20.2,17.6c-0.2,9.6,7.1,17.9,16.5,18.6c10.2,0.8,18.2-6.1,19.9-17.1
		c17.5,24.9,20.9,72-12.5,104.9c-33.6,33-88,31.9-120.8-2.6c-32.3-34-30.2-88.7,4.5-120.3C253.1,159.5,303,164.9,330.5,190.4z"/>
	<path class="st4" d="M619.7,191.4c-13.4,0.6-21.1,7.1-21.3,17.7c-0.2,9.6,7.2,17.9,16.6,18.6c10.5,0.8,18.1-6.1,19.9-18.1
		c19.6,29,19.2,78.7-17.8,109.5c-35.2,29.2-88.2,25.4-118.7-10.8c-29.7-35.3-26-89,10.9-119.5C544.5,159.6,593,165.6,619.7,191.4z"
		/>
</g>
<g>
	<path d="M1004.4,372L855,176.8v189.1c0,5.5-4.5,10-10,10h-12.5c-5.5,0-10-4.5-10-10V136.3c0-5.5,4.5-10,10-10h18.4
		c3.1,0,6,1.4,7.9,3.9l147.4,191.1v-185c0-5.5,4.5-10,10-10h12.5c5.5,0,10,4.5,10,10v229.7c0,5.5-4.5,10-10,10h-16.4
		C1009.2,376,1006.3,374.5,1004.4,372z"/>
	<path d="M1080,375.8c-5.5,0-9.9-4.4-9.9-9.9V136.2c0-5.5,4.5-10,10-10h151.2c5.6,0,10.1,4.5,10.1,10.1v7.6
		c0,5.6-4.5,10.1-10.1,10.1h-128.7v90.3h88.3c5.6,0,10.1,4.5,10.1,10.1v7.6c0,5.6-4.5,10.1-10.1,10.1h-88.3v76.3h128.6
		c5.6,0,10.1,4.5,10.1,10.1v7.6c0,5.6-4.5,10.1-10.1,10.1L1080,375.8z"/>
	<path d="M1272.6,366V136.2c0-5.5,4.4-9.9,9.9-9.9h12.7c5.5,0,9.9,4.4,9.9,9.9v212.1h111.6c5.5,0,9.9,4.4,9.9,9.9v7.9
		c0,5.5-4.4,9.9-9.9,9.9h-134.1C1277.1,376,1272.6,371.5,1272.6,366z"/>
	<path d="M1680.7,376h-15.5c-4,0-7.7-2.4-9.2-6.2l-85.6-211.7l-55.2,134.8h66.4c5.5,0,10,4.5,10,10v7.3c0,5.5-4.5,10-10,10h-76.2
		l-20.6,49.6c-1.5,3.7-5.2,6.2-9.2,6.2h-15.5c-7.2,0-12-7.3-9.2-13.9l96.9-229.7c1.6-3.7,5.2-6.1,9.2-6.1h27.1c4,0,7.7,2.4,9.2,6.1
		l96.6,229.7C1692.7,368.8,1687.9,376,1680.7,376z"/>
</g>
<g>
	<path d="M1263.1,431.9v-18.3c0-0.4,0.4-0.8,0.8-0.8h7.6c4.2,0,6.5,3.5,6.5,6.8s-2.4,6.8-6.5,6.8h-5.8v5.6c0,0.4-0.4,0.8-0.8,0.8h-1
		C1263.4,432.8,1263.1,432.4,1263.1,431.9z M1275.3,419.5c0-2.2-1.7-4.6-4.2-4.6h-5.5v9.2h5.5
		C1273.6,424.1,1275.3,421.9,1275.3,419.5z"/>
	<path d="M1279.9,422.8c0-5.9,4.2-10.3,10.4-10.3c6.2,0,10.4,4.4,10.4,10.3s-4.2,10.3-10.4,10.3S1279.9,428.6,1279.9,422.8z
		 M1298,422.8c0-4.7-3-8.1-7.7-8.1s-7.7,3.4-7.7,8.1c0,4.6,3,8.1,7.7,8.1S1298,427.4,1298,422.8z"/>
	<path d="M1318.8,432.2l-4.4-10.9l-4.4,10.9c-0.1,0.3-0.4,0.5-0.7,0.5h-1.7c-0.4,0-0.7-0.2-0.8-0.6l-5.5-18.4c-0.2-0.5,0.2-1,0.8-1
		h1.2c0.4,0,0.7,0.2,0.8,0.6l4.5,16.1l4.6-11.4c0.1-0.3,0.4-0.5,0.7-0.5h1.1c0.3,0,0.6,0.2,0.7,0.5l4.6,11.4l4.4-16.1
		c0.1-0.3,0.4-0.6,0.8-0.6h1.2c0.5,0,0.9,0.5,0.8,1l-5.5,18.4c-0.1,0.3-0.4,0.6-0.8,0.6h-1.7C1319.3,432.8,1319,432.5,1318.8,432.2z
		"/>
	<path d="M1330.9,432.8c-0.4,0-0.8-0.4-0.8-0.8v-18.3c0-0.4,0.4-0.8,0.8-0.8h12.1c0.4,0,0.8,0.4,0.8,0.8v0.6c0,0.4-0.4,0.8-0.8,0.8
		h-10.3v7.2h7.1c0.4,0,0.8,0.4,0.8,0.8v0.6c0,0.4-0.4,0.8-0.8,0.8h-7.1v6.1h10.3c0.4,0,0.8,0.4,0.8,0.8v0.6c0,0.4-0.4,0.8-0.8,0.8
		H1330.9z"/>
	<path d="M1358.2,432.4l-5.1-6.1h-4.2v5.6c0,0.4-0.4,0.8-0.8,0.8h-1c-0.4,0-0.8-0.4-0.8-0.8v-18.4c0-0.4,0.4-0.8,0.8-0.8h7.6
		c3.8,0,6.6,3.1,6.6,6.8c0,3.6-2.6,6.3-5.5,6.6l4.5,5.3c0.4,0.5,0.1,1.3-0.6,1.3h-1C1358.5,432.8,1358.3,432.6,1358.2,432.4z
		 M1358.6,419.5c0-2.3-1.7-4.6-4.2-4.6h-5.5v9.2h5.5C1356.9,424.1,1358.6,421.9,1358.6,419.5z"/>
	<path d="M1364.6,432.8c-0.4,0-0.8-0.4-0.8-0.8v-18.3c0-0.4,0.4-0.8,0.8-0.8h12.1c0.4,0,0.8,0.4,0.8,0.8v0.6c0,0.4-0.4,0.8-0.8,0.8
		h-10.3v7.2h7.1c0.4,0,0.8,0.4,0.8,0.8v0.6c0,0.4-0.4,0.8-0.8,0.8h-7.1v6.1h10.3c0.4,0,0.8,0.4,0.8,0.8v0.6c0,0.4-0.4,0.8-0.8,0.8
		H1364.6z"/>
	<path d="M1397.8,422.8c0,5.7-4.2,10-10.7,10h-6.3c-0.4,0-0.8-0.4-0.8-0.8v-13.1c0-0.4,0.4-0.8,0.8-0.8h1c0.4,0,0.8,0.4,0.8,0.8
		v11.7h4.5c5.1,0,8-3.5,8-7.8s-2.9-7.8-8-7.8h-6.3c-0.4,0-0.8-0.4-0.8-0.8v-0.6c0-0.4,0.4-0.8,0.8-0.8h6.3
		C1393.6,412.8,1397.8,417.1,1397.8,422.8z"/>
	<path d="M1425.3,427.4c0,3.2-2.2,5.4-6,5.4h-9.2c-0.2,0-0.4-0.2-0.4-0.4v-19.2c0-0.2,0.2-0.4,0.4-0.4h9c3.6,0,5.9,2.1,5.9,5.1
		c0,2.5-1.8,4.2-3.7,4.6C1423.4,422.8,1425.3,424.9,1425.3,427.4z M1422.6,427c0-1.8-1.3-3.4-3.9-3.4h-3.1c-0.2,0-0.3-0.2-0.3-0.3
		v-1.5c0-0.2,0.2-0.3,0.3-0.3h2.9c2.4,0,3.6-1.4,3.6-3.2c0-1.8-1.3-3.2-3.6-3.2h-6.3v15.5h6.4C1421.1,430.5,1422.6,429.2,1422.6,427
		z"/>
	<path d="M1432.9,431.9v-6.1l-7.5-11.9c-0.3-0.5,0-1.2,0.7-1.2h0.9c0.3,0,0.5,0.1,0.7,0.4l6.5,10.5l6.5-10.5
		c0.1-0.2,0.4-0.4,0.7-0.4h0.9c0.6,0,1,0.7,0.7,1.2l-7.4,11.9v6.1c0,0.4-0.4,0.8-0.8,0.8h-1C1433.2,432.8,1432.9,432.4,1432.9,431.9
		z"/>
	<path d="M1472.7,432.8h-1.2c-0.3,0-0.6-0.2-0.7-0.5l-6.8-16.9l-4.4,10.8h5.3c0.4,0,0.8,0.4,0.8,0.8v0.6c0,0.4-0.4,0.8-0.8,0.8h-6.1
		l-1.6,4c-0.1,0.3-0.4,0.5-0.7,0.5h-1.2c-0.6,0-1-0.6-0.7-1.1l7.8-18.4c0.1-0.3,0.4-0.5,0.7-0.5h2.2c0.3,0,0.6,0.2,0.7,0.5l7.7,18.4
		C1473.6,432.1,1473.2,432.8,1472.7,432.8z"/>
	<path d="M1487.7,432.4l-8.4-8l-1.4,1.6v5.9c0,0.4-0.4,0.8-0.8,0.8h-1c-0.4,0-0.8-0.4-0.8-0.8v-18.4c0-0.4,0.4-0.8,0.8-0.8h1
		c0.4,0,0.8,0.4,0.8,0.8v9.5l9-10c0.2-0.2,0.4-0.3,0.6-0.3h1.1c0.7,0,1.1,0.8,0.6,1.3l-8.1,8.8l9,8.5c0.5,0.5,0.1,1.3-0.6,1.3h-1.1
		C1488.1,432.8,1487.9,432.6,1487.7,432.4z"/>
	<path d="M1502.1,431.9v-18.4c0-0.4,0.4-0.8,0.8-0.8h1c0.4,0,0.8,0.4,0.8,0.8v18.4c0,0.4-0.4,0.8-0.8,0.8h-1
		C1502.4,432.8,1502.1,432.4,1502.1,431.9z"/>
	<path d="M1513.9,431.9V415h-5.7c-0.4,0-0.8-0.4-0.8-0.8v-0.6c0-0.4,0.4-0.8,0.8-0.8h13.9c0.4,0,0.8,0.4,0.8,0.8v0.6
		c0,0.4-0.4,0.8-0.8,0.8h-5.7v16.9c0,0.4-0.4,0.8-0.8,0.8h-1C1514.3,432.8,1513.9,432.4,1513.9,431.9z"/>
	<path d="M1550.2,427.2c0,2.9-2.1,5.9-7.7,5.9c-2.7,0-4.9-0.7-6.6-1.9c-0.4-0.3-0.5-0.8-0.2-1.2l0.6-0.7c0.3-0.3,0.7-0.4,1.1-0.1
		c1.3,0.9,3.1,1.7,5.2,1.7c3.7,0,4.9-1.9,4.9-3.5c0-5.1-12.4-2.3-12.4-9.4c0-3.3,3.1-5.6,7.2-5.6c1.8,0,3.3,0.3,4.6,0.9
		c0.5,0.2,0.6,0.8,0.3,1.2l-0.5,0.6c-0.2,0.3-0.6,0.3-0.9,0.2c-1.1-0.5-2.4-0.7-3.7-0.7c-2.5,0-4.3,1.3-4.3,3.2
		C1537.8,422.4,1550.2,419.8,1550.2,427.2z"/>
	<path d="M1552.7,422.8c0-5.9,4.2-10.3,10.4-10.3c6.2,0,10.4,4.4,10.4,10.3s-4.2,10.3-10.4,10.3
		C1556.9,433,1552.7,428.6,1552.7,422.8z M1570.8,422.8c0-4.7-3-8.1-7.7-8.1s-7.7,3.4-7.7,8.1c0,4.6,3,8.1,7.7,8.1
		S1570.8,427.4,1570.8,422.8z"/>
	<path d="M1576,431.9v-18.4c0-0.4,0.4-0.8,0.8-0.8h1c0.4,0,0.8,0.4,0.8,0.8v17h8.9c0.4,0,0.8,0.4,0.8,0.8v0.6c0,0.4-0.4,0.8-0.8,0.8
		h-10.7C1576.4,432.8,1576,432.4,1576,431.9z"/>
	<path d="M1588.6,424.9v-11.4c0-0.4,0.4-0.8,0.8-0.8h1c0.4,0,0.8,0.4,0.8,0.8v11.3c0,3.7,1.3,6,5.1,6c3.9,0,5.1-2.3,5.1-6v-11.3
		c0-0.4,0.4-0.8,0.8-0.8h1c0.4,0,0.8,0.4,0.8,0.8v11.4c0,5-2.1,8.1-7.8,8.1C1590.7,433,1588.6,429.9,1588.6,424.9z"/>
	<path d="M1613.4,431.9V415h-5.7c-0.4,0-0.8-0.4-0.8-0.8v-0.6c0-0.4,0.4-0.8,0.8-0.8h13.9c0.4,0,0.8,0.4,0.8,0.8v0.6
		c0,0.4-0.4,0.8-0.8,0.8h-5.7v16.9c0,0.4-0.4,0.8-0.8,0.8h-1C1613.8,432.8,1613.4,432.4,1613.4,431.9z"/>
	<path d="M1625.4,431.9v-18.4c0-0.4,0.4-0.8,0.8-0.8h1c0.4,0,0.8,0.4,0.8,0.8v18.4c0,0.4-0.4,0.8-0.8,0.8h-1
		C1625.7,432.8,1625.4,432.4,1625.4,431.9z"/>
	<path d="M1630.4,422.8c0-5.9,4.2-10.3,10.4-10.3c6.2,0,10.4,4.4,10.4,10.3s-4.2,10.3-10.4,10.3S1630.4,428.6,1630.4,422.8z
		 M1648.5,422.8c0-4.7-3-8.1-7.7-8.1s-7.7,3.4-7.7,8.1c0,4.6,3,8.1,7.7,8.1S1648.5,427.4,1648.5,422.8z"/>
	<path d="M1668.3,432.4l-12-15.6v15.1c0,0.4-0.4,0.8-0.8,0.8h-1c-0.4,0-0.8-0.4-0.8-0.8v-18.4c0-0.4,0.4-0.8,0.8-0.8h1.5
		c0.2,0,0.5,0.1,0.6,0.3l11.8,15.3v-14.8c0-0.4,0.4-0.8,0.8-0.8h1c0.4,0,0.8,0.4,0.8,0.8v18.4c0,0.4-0.4,0.8-0.8,0.8h-1.3
		C1668.7,432.8,1668.4,432.6,1668.3,432.4z"/>
	<path d="M1688.6,427.2c0,2.9-2.1,5.9-7.7,5.9c-2.7,0-4.9-0.7-6.6-1.9c-0.4-0.3-0.5-0.8-0.2-1.2l0.6-0.7c0.3-0.3,0.7-0.4,1.1-0.1
		c1.3,0.9,3.1,1.7,5.2,1.7c3.7,0,4.9-1.9,4.9-3.5c0-5.1-12.4-2.3-12.4-9.4c0-3.3,3.1-5.6,7.2-5.6c1.8,0,3.3,0.3,4.6,0.9
		c0.5,0.2,0.6,0.8,0.3,1.2l-0.5,0.6c-0.2,0.3-0.6,0.3-0.9,0.2c-1.1-0.5-2.4-0.7-3.7-0.7c-2.5,0-4.3,1.3-4.3,3.2
		C1676.2,422.4,1688.6,419.8,1688.6,427.2z"/>
</g>
</svg>
