<?xml version="1.0" encoding="utf-8"?>
<!-- Generator: Adobe Illustrator 25.2.0, SVG Export Plug-In . SVG Version: 6.00 Build 0)  -->
<svg version="1.1" id="Layer_1" xmlns="http://www.w3.org/2000/svg" xmlns:xlink="http://www.w3.org/1999/xlink" x="0px" y="0px"
	 viewBox="0 0 179 48" style="enable-background:new 0 0 179 48;" xml:space="preserve">
<style type="text/css">
	.st0{fill:#FDFEFE;}
	.st1{fill:#010101;}
	.st2{fill:#020202;}
	.st3{fill:#09040A;}
	.st4{fill:#11B0CC;}
	.st5{fill:#0BAECA;}
	.st6{fill:#FBFCFC;}
	.st7{fill:#0CAFCA;}
</style>
<path class="st0" d="M85.3,17c0.2,0.2,0.3,0.4,0.4,0.5c4.6,6,9.2,12,13.8,17.9c1.4,1.8,0.8,1.5,3,1.5c1,0,1.3-0.3,1.3-1.3
	c0-5.4,0-10.8,0-16.1c0-2.2,0-4.3,0-6.5c0-0.7-0.4-1.1-1.1-1.1c-0.3,0-0.6,0-0.9,0c-1,0-1.3,0.3-1.3,1.4c0,5.8,0,11.7,0,17.5
	c0,0.2,0,0.3,0,0.6c-0.2-0.2-0.3-0.3-0.4-0.4c-4.5-5.9-9-11.7-13.6-17.6c-1.4-1.7-0.8-1.5-3.1-1.5c-1.2,0-1.4,0.3-1.4,1.5
	c0,7.4,0,14.8,0,22.1c0,1.2,0.3,1.5,1.4,1.5c0.2,0,0.3,0,0.5,0c1,0,1.3-0.3,1.3-1.3c0-6,0-12,0-18C85.3,17.5,85.3,17.3,85.3,17z
	 M157.2,15.1c0.1,0.2,0.2,0.4,0.2,0.5c1.3,3.3,2.7,6.6,4,9.9c1.4,3.5,2.9,7.1,4.3,10.6c0.3,0.7,0.5,0.9,1.3,0.9c0.4,0,0.8,0,1.1,0
	c1,0,1.4-0.7,1-1.5c-3.2-7.6-6.4-15.2-9.6-22.7c-0.2-0.5-0.6-0.8-1.2-0.8c-0.8,0-1.5,0-2.3,0c-0.7,0-1.1,0.2-1.4,0.9
	c-2.2,5.1-4.3,10.3-6.5,15.4c-1,2.4-2,4.8-3.1,7.2c-0.4,0.9,0.1,1.5,1,1.5c0.4,0,0.8,0,1.1,0c0.7,0,1.1-0.3,1.3-0.9
	c0.6-1.4,1.2-2.9,1.8-4.3c0.1-0.3,0.3-0.4,0.7-0.4c2.3,0,4.6,0,6.9,0c1,0,1.3-0.3,1.3-1.4c0-1-0.3-1.4-1.3-1.4c-2,0-3.9,0-5.9,0
	c-0.1,0-0.3,0-0.5,0C153.5,24.1,155.3,19.6,157.2,15.1z M110.2,14.7c1.1,0,2.2,0,3.2,0c3.1,0,6.3,0,9.4,0c0.5,0,1-0.1,1.2-0.7
	c0.1-0.3,0.1-0.6,0.1-0.8c0-0.9-0.4-1.2-1.2-1.3c-0.9,0-1.9,0-2.8,0c-3.9,0-7.9,0-11.8,0c-1,0-1.3,0.3-1.3,1.3c0,1,0,2,0,2.9
	c0,6.5,0,13,0,19.5c0,0.9,0.3,1.3,1.1,1.3c5,0,10.1,0,15.1,0c0.3,0,0.6-0.2,0.8-0.4c0.4-0.6,0.3-1.2,0.1-1.8
	c-0.2-0.5-0.7-0.6-1.2-0.6c-4,0-8,0-12,0c-0.2,0-0.4,0-0.6,0c0-2.6,0-5.1,0-7.6c0.2,0,0.4,0,0.6,0c2.7,0,5.4,0,8.1,0
	c0.8,0,1.2-0.4,1.2-1.2c0-0.1,0-0.3,0-0.4c0-0.9-0.3-1.2-1.2-1.2c-2.7,0-5.4,0-8.1,0c-0.2,0-0.4,0-0.6,0
	C110.2,20.7,110.2,17.7,110.2,14.7z M59,38c7.3,0,13.3-5.9,13.3-13.2c0-7.3-5.9-13.3-13.2-13.3c-7.3,0-13.3,5.9-13.3,13.2
	C45.7,32,51.7,38,59,38z M29.5,38c7.3,0,13.3-5.9,13.3-13.2c0-7.3-5.9-13.3-13.2-13.3c-7.3,0-13.3,5.9-13.3,13.2
	C16.3,32,22.2,38,29.5,38z M130.5,34.1c0-0.2,0-0.4,0-0.6c0-3.7,0-7.3,0-11c0-3.2,0-6.3,0-9.5c0-0.8-0.4-1.2-1.2-1.2
	c-0.3,0-0.6,0-0.9,0c-0.8,0-1.2,0.3-1.2,1.2c0,7.6,0,15.1,0,22.7c0,0.8,0.4,1.2,1.2,1.2c1.9,0,3.9,0,5.8,0c2.4,0,4.9,0,7.3,0
	c0.8,0,1.1-0.4,1.2-1.1c0-0.1,0-0.3,0-0.4c0-0.8-0.4-1.2-1.2-1.2c-1.8,0-3.7,0-5.5,0C134.2,34.1,132.4,34.1,130.5,34.1z M62.6,5.8
	c0,0.7,0,1.3,0,2c4.7,0,9.4,0,14.1,0c0,4.7,0,9.3,0,14c0.7,0,1.3,0,1.9,0c0-5.3,0-10.7,0-16C73.3,5.8,68,5.8,62.6,5.8z M10.1,42.3
	c5.4,0,10.7,0,16,0c0-0.7,0-1.3,0-2c-4.7,0-9.4,0-14.1,0c0-4.7,0-9.3,0-14c-0.7,0-1.3,0-1.9,0C10.1,31.7,10.1,37,10.1,42.3z
	 M26.1,5.8c-5.4,0-10.7,0-15.9,0c0,5.4,0,10.7,0,16c0.7,0,1.3,0,1.9,0c0-4.7,0-9.4,0-14.1c4.7,0,9.3,0,14,0
	C26.1,7,26.1,6.4,26.1,5.8z M76.7,40.5c-4.7,0-9.4,0-14,0c0,0.7,0,1.3,0,1.9c5.3,0,10.6,0,15.9,0c0-5.4,0-10.7,0-16
	c-0.7,0-1.3,0-1.9,0C76.7,31,76.7,35.7,76.7,40.5z"/>
<path class="st1" d="M85.3,17c0,0.3,0,0.5,0,0.7c0,6,0,12,0,18c0,1-0.3,1.3-1.3,1.3c-0.2,0-0.3,0-0.5,0c-1.2,0-1.4-0.3-1.4-1.5
	c0-7.4,0-14.8,0-22.1c0-1.2,0.3-1.5,1.4-1.5c2.3,0,1.7-0.2,3.1,1.5c4.5,5.8,9,11.7,13.6,17.6c0.1,0.1,0.2,0.2,0.4,0.4
	c0-0.3,0-0.5,0-0.6c0-5.8,0-11.7,0-17.5c0-1,0.3-1.3,1.3-1.4c0.3,0,0.6,0,0.9,0c0.7,0,1.1,0.4,1.1,1.1c0,2.2,0,4.3,0,6.5
	c0,5.4,0,10.8,0,16.1c0,1-0.3,1.3-1.3,1.3c-2.2,0-1.7,0.3-3-1.5c-4.6-6-9.2-12-13.8-17.9C85.6,17.4,85.5,17.2,85.3,17z"/>
<path class="st2" d="M157.2,15.1c-1.9,4.5-3.7,9-5.5,13.4c0.2,0,0.4,0,0.5,0c2,0,3.9,0,5.9,0c1,0,1.3,0.4,1.3,1.4
	c0,1-0.3,1.4-1.3,1.4c-2.3,0-4.6,0-6.9,0c-0.4,0-0.5,0.1-0.7,0.4c-0.6,1.4-1.2,2.9-1.8,4.3c-0.2,0.6-0.6,0.9-1.3,0.9
	c-0.4,0-0.8,0-1.1,0c-1,0-1.4-0.7-1-1.5c1-2.4,2-4.8,3.1-7.2c2.2-5.1,4.4-10.3,6.5-15.4c0.3-0.6,0.7-0.9,1.4-0.9c0.8,0,1.5,0,2.3,0
	c0.6,0,0.9,0.2,1.2,0.8c3.2,7.6,6.4,15.2,9.6,22.7c0.4,0.9-0.1,1.5-1,1.5c-0.4,0-0.8,0-1.1,0c-0.8,0-1-0.2-1.3-0.9
	c-1.4-3.5-2.9-7.1-4.3-10.6c-1.3-3.3-2.7-6.6-4-9.9C157.4,15.5,157.3,15.4,157.2,15.1z"/>
<path class="st2" d="M110.2,14.7c0,3,0,6,0,9.1c0.2,0,0.4,0,0.6,0c2.7,0,5.4,0,8.1,0c0.9,0,1.2,0.3,1.2,1.2c0,0.1,0,0.3,0,0.4
	c0,0.8-0.4,1.2-1.2,1.2c-2.7,0-5.4,0-8.1,0c-0.2,0-0.4,0-0.6,0c0,2.5,0,5.1,0,7.6c0.2,0,0.4,0,0.6,0c4,0,8,0,12,0c0.5,0,1,0,1.2,0.6
	c0.2,0.6,0.3,1.3-0.1,1.8c-0.2,0.2-0.5,0.4-0.8,0.4c-5,0-10.1,0-15.1,0c-0.8,0-1.1-0.4-1.1-1.3c0-6.5,0-13,0-19.5c0-1,0-2,0-2.9
	c0-1,0.3-1.3,1.3-1.3c3.9,0,7.9,0,11.8,0c0.9,0,1.9,0,2.8,0c0.9,0,1.2,0.4,1.2,1.3c0,0.3,0,0.6-0.1,0.8c-0.2,0.6-0.6,0.7-1.2,0.7
	c-3.1,0-6.3,0-9.4,0C112.4,14.7,111.3,14.7,110.2,14.7z"/>
<path class="st3" d="M59,38c-7.3,0-13.3-6-13.2-13.3c0-7.3,6-13.2,13.3-13.2c7.3,0,13.2,6,13.2,13.3C72.2,32.1,66.3,38,59,38z
	 M70.1,24.8c0-6.1-5-11.1-11.1-11.1c-6.1,0-11.1,5-11.1,11.1c0,6.1,5,11.1,11.1,11.1C65.1,35.9,70.1,30.9,70.1,24.8z"/>
<path class="st3" d="M29.5,38c-7.3,0-13.3-6-13.2-13.3c0-7.3,6-13.2,13.3-13.2c7.3,0,13.2,6,13.2,13.3C42.8,32.1,36.8,38,29.5,38z
	 M40.7,24.8c0-6.1-5-11.1-11.1-11.1c-6.1,0-11.1,5-11.1,11c0,6.1,5,11.1,11.1,11.1C35.7,35.9,40.7,30.9,40.7,24.8z"/>
<path class="st1" d="M130.5,34.1c1.9,0,3.7,0,5.5,0c1.8,0,3.7,0,5.5,0c0.8,0,1.2,0.4,1.2,1.2c0,0.1,0,0.3,0,0.4
	c0,0.8-0.4,1.1-1.2,1.1c-2.4,0-4.9,0-7.3,0c-1.9,0-3.9,0-5.8,0c-0.9,0-1.2-0.3-1.2-1.2c0-7.6,0-15.1,0-22.7c0-0.8,0.3-1.2,1.2-1.2
	c0.3,0,0.6,0,0.9,0c0.8,0,1.2,0.4,1.2,1.2c0,3.2,0,6.3,0,9.5c0,3.7,0,7.3,0,11C130.5,33.7,130.5,33.9,130.5,34.1z"/>
<path class="st4" d="M62.6,5.8c5.4,0,10.7,0,16,0c0,5.3,0,10.6,0,16c-0.6,0-1.2,0-1.9,0c0-4.7,0-9.3,0-14c-4.7,0-9.4,0-14.1,0
	C62.6,7.1,62.6,6.5,62.6,5.8z"/>
<path class="st4" d="M10.1,42.3c0-5.3,0-10.6,0-15.9c0.6,0,1.3,0,1.9,0c0,4.7,0,9.3,0,14c4.7,0,9.4,0,14.1,0c0,0.7,0,1.3,0,2
	C20.8,42.3,15.5,42.3,10.1,42.3z"/>
<path class="st5" d="M26.1,5.8c0,0.6,0,1.2,0,1.9c-4.7,0-9.3,0-14,0c0,4.7,0,9.4,0,14.1c-0.6,0-1.2,0-1.9,0c0-5.3,0-10.6,0-16
	C15.4,5.8,20.7,5.8,26.1,5.8z"/>
<path class="st5" d="M76.7,40.5c0-4.8,0-9.4,0-14.1c0.6,0,1.2,0,1.9,0c0,5.3,0,10.7,0,16c-5.3,0-10.6,0-15.9,0c0-0.6,0-1.2,0-1.9
	C67.4,40.5,72,40.5,76.7,40.5z"/>
<path class="st6" d="M70.1,24.8c0,6.1-5,11.1-11.1,11.1c-6.1,0-11.1-5-11.1-11.1c0-6.1,5-11.1,11.1-11.1
	C65.1,13.7,70.1,18.7,70.1,24.8z M65.2,18.2c0,0,0.1,0,0.1,0C65.4,18.2,65.3,18.2,65.2,18.2c-1.5-1.7-3.5-2.5-5.7-2.6
	c-5.8-0.3-10.3,4.6-9.6,10.4c0.5,4.3,4.2,7.7,8.5,7.9c6.2,0.3,10.8-5.2,9.5-11.2c-0.2-1.1-0.7-2.1-1.4-3.1c0,0.2,0,0.4,0,0.5
	c0,1-0.8,1.7-1.7,1.8c-1,0.1-1.8-0.6-2-1.5C62.6,19.1,63.7,17.9,65.2,18.2z"/>
<path class="st6" d="M40.7,24.8c0,6.1-5,11.1-11.1,11.1c-6.1,0-11.1-5-11.1-11.1c0-6.1,5-11.1,11.1-11
	C35.7,13.7,40.7,18.7,40.7,24.8z M35.9,18.2c-3-3.1-8.6-3.7-12.4-0.2c-3.8,3.4-4.1,9.3-0.6,13c3.6,3.8,9.4,3.9,13.1,0.4
	c3.7-3.6,3.3-8.9,1.3-11.4c-0.1,1.3-0.9,2.1-2.1,2c-1-0.1-1.8-0.9-1.7-1.9C33.5,18.9,34.3,18.2,35.9,18.2z"/>
<path class="st7" d="M65.2,18.2c-1.5-0.4-2.6,0.9-2.4,2.2c0.2,0.9,1,1.6,2,1.5c0.9-0.1,1.7-0.8,1.7-1.8c0-0.1,0-0.2,0-0.5
	c0.7,1,1.1,2,1.4,3.1c1.4,6-3.3,11.5-9.5,11.2c-4.3-0.2-8-3.6-8.5-7.9c-0.7-5.8,3.8-10.6,9.6-10.4C61.7,15.7,63.7,16.5,65.2,18.2
	C65.3,18.2,65.3,18.2,65.2,18.2z"/>
<path class="st7" d="M65.3,18.1C65.3,18.2,65.4,18.2,65.3,18.1C65.3,18.2,65.3,18.2,65.3,18.1C65.3,18.2,65.3,18.2,65.3,18.1z"/>
<path class="st7" d="M35.9,18.2c-1.5,0-2.4,0.7-2.4,1.9c0,1,0.8,1.8,1.7,1.9c1.1,0.1,1.9-0.7,2.1-2c2,2.5,2.4,7.8-1.3,11.4
	c-3.7,3.6-9.5,3.4-13.1-0.4c-3.5-3.7-3.2-9.6,0.6-13C27.3,14.5,32.9,15.1,35.9,18.2z"/>
</svg>
