<?xml version="1.0" encoding="utf-8"?>
<!-- Generator: Adobe Illustrator 25.2.0, SVG Export Plug-In . SVG Version: 6.00 Build 0)  -->
<svg version="1.1" id="Layer_1" xmlns="http://www.w3.org/2000/svg" xmlns:xlink="http://www.w3.org/1999/xlink" x="0px" y="0px"
	 viewBox="0 0 112 30" style="enable-background:new 0 0 112 30;" xml:space="preserve">
<style type="text/css">
	.st0{fill:#FDFEFE;}
	.st1{fill:#FFFFFF;}
	.st2{fill:#09040A;}
	.st3{fill:#11B0CC;}
	.st4{fill:#0BAECA;}
	.st5{fill:#FBFCFC;}
	.st6{fill:#0CAFCA;}
</style>
<path class="st0" d="M52.7,10.3c0.1,0.1,0.2,0.3,0.3,0.3c3.1,4,6.1,8,9.2,11.9c0.9,1.2,0.5,1,2,1c0.7,0,0.9-0.2,0.9-0.9
	c0-3.6,0-7.2,0-10.7c0-1.5,0-2.9,0-4.3c0-0.5-0.3-0.7-0.7-0.7c-0.2,0-0.4,0-0.6,0c-0.7,0-0.9,0.2-0.9,0.9c0,3.9,0,7.8,0,11.6
	c0,0.1,0,0.2,0,0.4c-0.1-0.1-0.2-0.2-0.3-0.3c-3-3.9-6-7.8-9-11.7c-0.9-1.1-0.5-1-2.1-1c-0.8,0-0.9,0.2-0.9,1c0,4.9,0,9.8,0,14.7
	c0,0.8,0.2,1,0.9,1c0.1,0,0.2,0,0.3,0c0.7,0,0.9-0.2,0.9-0.9c0-4,0-8,0-12C52.7,10.6,52.7,10.5,52.7,10.3z M100.5,9
	c0.1,0.1,0.1,0.3,0.1,0.3c0.9,2.2,1.8,4.4,2.7,6.6c0.9,2.3,1.9,4.7,2.9,7c0.2,0.5,0.3,0.6,0.9,0.6c0.3,0,0.5,0,0.7,0
	c0.7,0,0.9-0.5,0.7-1c-2.1-5-4.2-10.1-6.4-15.1c-0.1-0.3-0.4-0.5-0.8-0.5c-0.5,0-1,0-1.5,0c-0.5,0-0.7,0.1-0.9,0.6
	c-1.5,3.4-2.9,6.8-4.3,10.2c-0.7,1.6-1.3,3.2-2.1,4.8c-0.3,0.6,0.1,1,0.7,1c0.3,0,0.5,0,0.7,0c0.5,0,0.7-0.2,0.9-0.6
	c0.4-0.9,0.8-1.9,1.2-2.9c0.1-0.2,0.2-0.3,0.5-0.3c1.5,0,3.1,0,4.6,0c0.7,0,0.9-0.2,0.9-0.9c0-0.7-0.2-0.9-0.9-0.9
	c-1.3,0-2.6,0-3.9,0c-0.1,0-0.2,0-0.3,0C98,15,99.2,12,100.5,9z M69.3,8.8c0.7,0,1.5,0,2.1,0c2.1,0,4.2,0,6.2,0
	c0.3,0,0.7-0.1,0.8-0.5c0.1-0.2,0.1-0.4,0.1-0.5c0-0.6-0.3-0.8-0.8-0.9c-0.6,0-1.3,0-1.9,0c-2.6,0-5.2,0-7.8,0
	c-0.7,0-0.9,0.2-0.9,0.9s0,1.3,0,1.9c0,4.3,0,8.6,0,12.9c0,0.6,0.2,0.9,0.7,0.9c3.3,0,6.7,0,10,0c0.2,0,0.4-0.1,0.5-0.3
	c0.3-0.4,0.2-0.8,0.1-1.2c-0.1-0.3-0.5-0.4-0.8-0.4c-2.7,0-5.3,0-8,0c-0.1,0-0.3,0-0.4,0c0-1.7,0-3.4,0-5c0.1,0,0.3,0,0.4,0
	c1.8,0,3.6,0,5.4,0c0.5,0,0.8-0.3,0.8-0.8c0-0.1,0-0.2,0-0.3c0-0.6-0.2-0.8-0.8-0.8c-1.8,0-3.6,0-5.4,0c-0.1,0-0.3,0-0.4,0
	C69.3,12.7,69.3,10.8,69.3,8.8z M35.3,24.2c4.8,0,8.8-3.9,8.8-8.8s-3.9-8.8-8.8-8.8s-8.8,3.9-8.8,8.8C26.5,20.2,30.4,24.2,35.3,24.2
	z M15.7,24.2c4.8,0,8.8-3.9,8.8-8.8s-3.9-8.8-8.8-8.8s-8.8,3.9-8.8,8.8S10.8,24.2,15.7,24.2z M82.8,21.6c0-0.1,0-0.3,0-0.4
	c0-2.5,0-4.8,0-7.3c0-2.1,0-4.2,0-6.3c0-0.5-0.3-0.8-0.8-0.8c-0.2,0-0.4,0-0.6,0c-0.5,0-0.8,0.2-0.8,0.8c0,5,0,10,0,15.1
	c0,0.5,0.3,0.8,0.8,0.8c1.3,0,2.6,0,3.9,0c1.6,0,3.3,0,4.8,0c0.5,0,0.7-0.3,0.8-0.7c0-0.1,0-0.2,0-0.3c0-0.5-0.3-0.8-0.8-0.8
	c-1.2,0-2.5,0-3.7,0C85.2,21.6,84,21.6,82.8,21.6z M37.7,2.9c0,0.5,0,0.9,0,1.3c3.1,0,6.2,0,9.4,0c0,3.1,0,6.2,0,9.3
	c0.5,0,0.9,0,1.3,0c0-3.5,0-7.1,0-10.6C44.8,2.9,41.3,2.9,37.7,2.9z M2.8,27.1c3.6,0,7.1,0,10.6,0c0-0.5,0-0.9,0-1.3
	c-3.1,0-6.2,0-9.4,0c0-3.1,0-6.2,0-9.3c-0.5,0-0.9,0-1.3,0C2.8,20,2.8,23.6,2.8,27.1z M13.4,2.9c-3.6,0-7.1,0-10.6,0
	c0,3.6,0,7.1,0,10.6c0.5,0,0.9,0,1.3,0c0-3.1,0-6.2,0-9.4c3.1,0,6.2,0,9.3,0C13.4,3.6,13.4,3.2,13.4,2.9z M47,25.9
	c-3.1,0-6.2,0-9.3,0c0,0.5,0,0.9,0,1.3c3.5,0,7,0,10.6,0c0-3.6,0-7.1,0-10.6c-0.5,0-0.9,0-1.3,0C47,19.6,47,22.7,47,25.9z"/>
<path class="st1" d="M52.7,10.3c0,0.2,0,0.3,0,0.5c0,4,0,8,0,12c0,0.7-0.2,0.9-0.9,0.9c-0.1,0-0.2,0-0.3,0c-0.8,0-0.9-0.2-0.9-1
	c0-4.9,0-9.8,0-14.7c0-0.8,0.2-1,0.9-1c1.5,0,1.1-0.1,2.1,1c3,3.9,6,7.8,9,11.7c0.1,0.1,0.1,0.1,0.3,0.3c0-0.2,0-0.3,0-0.4
	c0-3.9,0-7.8,0-11.6c0-0.7,0.2-0.9,0.9-0.9c0.2,0,0.4,0,0.6,0c0.5,0,0.7,0.3,0.7,0.7c0,1.5,0,2.9,0,4.3c0,3.6,0,7.2,0,10.7
	c0,0.7-0.2,0.9-0.9,0.9c-1.5,0-1.1,0.2-2-1c-3.1-4-6.1-8-9.2-11.9C52.9,10.6,52.9,10.4,52.7,10.3z"/>
<path class="st1" d="M100.5,9c-1.3,3-2.5,6-3.7,8.9c0.1,0,0.3,0,0.3,0c1.3,0,2.6,0,3.9,0c0.7,0,0.9,0.3,0.9,0.9s-0.2,0.9-0.9,0.9
	c-1.5,0-3.1,0-4.6,0c-0.3,0-0.3,0.1-0.5,0.3c-0.4,0.9-0.8,1.9-1.2,2.9c-0.1,0.4-0.4,0.6-0.9,0.6c-0.3,0-0.5,0-0.7,0
	c-0.7,0-0.9-0.5-0.7-1c0.7-1.6,1.3-3.2,2.1-4.8c1.5-3.4,2.9-6.8,4.3-10.2c0.2-0.4,0.5-0.6,0.9-0.6c0.5,0,1,0,1.5,0
	c0.4,0,0.6,0.1,0.8,0.5c2.1,5,4.2,10.1,6.4,15.1c0.3,0.6-0.1,1-0.7,1c-0.3,0-0.5,0-0.7,0c-0.5,0-0.7-0.1-0.9-0.6
	c-0.9-2.3-1.9-4.7-2.9-7c-0.9-2.2-1.8-4.4-2.7-6.6C100.6,9.3,100.5,9.2,100.5,9z"/>
<path class="st1" d="M69.3,8.8c0,2,0,4,0,6c0.1,0,0.3,0,0.4,0c1.8,0,3.6,0,5.4,0c0.6,0,0.8,0.2,0.8,0.8c0,0.1,0,0.2,0,0.3
	c0,0.5-0.3,0.8-0.8,0.8c-1.8,0-3.6,0-5.4,0c-0.1,0-0.3,0-0.4,0c0,1.7,0,3.4,0,5c0.1,0,0.3,0,0.4,0c2.7,0,5.3,0,8,0
	c0.3,0,0.7,0,0.8,0.4c0.1,0.4,0.2,0.9-0.1,1.2c-0.1,0.1-0.3,0.3-0.5,0.3c-3.3,0-6.7,0-10,0c-0.5,0-0.7-0.3-0.7-0.9
	c0-4.3,0-8.6,0-12.9c0-0.7,0-1.3,0-1.9c0-0.7,0.2-0.9,0.9-0.9c2.6,0,5.2,0,7.8,0c0.6,0,1.3,0,1.9,0s0.8,0.3,0.8,0.9
	c0,0.2,0,0.4-0.1,0.5c-0.1,0.4-0.4,0.5-0.8,0.5c-2.1,0-4.2,0-6.2,0C70.7,8.8,70,8.8,69.3,8.8z"/>
<path class="st2" d="M35.3,24.2c-4.8,0-8.8-4-8.8-8.8c0-4.8,4-8.8,8.8-8.8s8.8,4,8.8,8.8C44,20.3,40.1,24.2,35.3,24.2z M42.7,15.5
	c0-4.1-3.3-7.4-7.4-7.4s-7.4,3.3-7.4,7.4s3.3,7.4,7.4,7.4S42.7,19.5,42.7,15.5z"/>
<path class="st2" d="M15.7,24.2c-4.8,0-8.8-4-8.8-8.8c0-4.8,4-8.8,8.8-8.8s8.8,4,8.8,8.8S20.5,24.2,15.7,24.2z M23.1,15.5
	c0-4.1-3.3-7.4-7.4-7.4s-7.4,3.3-7.4,7.3c0,4.1,3.3,7.4,7.4,7.4C19.8,22.8,23.1,19.5,23.1,15.5z"/>
<path class="st1" d="M82.8,21.6c1.3,0,2.5,0,3.7,0s2.5,0,3.7,0c0.5,0,0.8,0.3,0.8,0.8c0,0.1,0,0.2,0,0.3c0,0.5-0.3,0.7-0.8,0.7
	c-1.6,0-3.3,0-4.8,0c-1.3,0-2.6,0-3.9,0c-0.6,0-0.8-0.2-0.8-0.8c0-5,0-10,0-15.1c0-0.5,0.2-0.8,0.8-0.8c0.2,0,0.4,0,0.6,0
	c0.5,0,0.8,0.3,0.8,0.8c0,2.1,0,4.2,0,6.3c0,2.5,0,4.8,0,7.3C82.8,21.4,82.8,21.5,82.8,21.6z"/>
<path class="st3" d="M37.7,2.9c3.6,0,7.1,0,10.6,0c0,3.5,0,7,0,10.6c-0.4,0-0.8,0-1.3,0c0-3.1,0-6.2,0-9.3c-3.1,0-6.2,0-9.4,0
	C37.7,3.7,37.7,3.3,37.7,2.9z"/>
<path class="st3" d="M2.8,27.1c0-3.5,0-7,0-10.6c0.4,0,0.9,0,1.3,0c0,3.1,0,6.2,0,9.3c3.1,0,6.2,0,9.4,0c0,0.5,0,0.9,0,1.3
	C9.9,27.1,6.4,27.1,2.8,27.1z"/>
<path class="st4" d="M13.4,2.9c0,0.4,0,0.8,0,1.3c-3.1,0-6.2,0-9.3,0c0,3.1,0,6.2,0,9.4c-0.4,0-0.8,0-1.3,0c0-3.5,0-7,0-10.6
	C6.3,2.9,9.9,2.9,13.4,2.9z"/>
<path class="st4" d="M47,25.9c0-3.2,0-6.2,0-9.4c0.4,0,0.8,0,1.3,0c0,3.5,0,7.1,0,10.6c-3.5,0-7,0-10.6,0c0-0.4,0-0.8,0-1.3
	C40.9,25.9,43.9,25.9,47,25.9z"/>
<path class="st5" d="M42.7,15.5c0,4.1-3.3,7.4-7.4,7.4s-7.4-3.3-7.4-7.4s3.3-7.4,7.4-7.4C39.3,8.1,42.7,11.4,42.7,15.5z M39.4,11.1
	L39.4,11.1C39.5,11.1,39.5,11.1,39.4,11.1c-1-1.1-2.3-1.7-3.8-1.7c-3.9-0.2-6.8,3.1-6.4,6.9c0.3,2.9,2.8,5.1,5.6,5.2
	c4.1,0.2,7.2-3.5,6.3-7.4c-0.1-0.7-0.5-1.4-0.9-2.1c0,0.1,0,0.3,0,0.3c0,0.7-0.5,1.1-1.1,1.2c-0.7,0.1-1.2-0.4-1.3-1
	C37.7,11.7,38.4,10.9,39.4,11.1z"/>
<path class="st5" d="M23.1,15.5c0,4.1-3.3,7.4-7.4,7.4s-7.4-3.3-7.4-7.4s3.3-7.4,7.4-7.3C19.8,8.1,23.1,11.4,23.1,15.5z M19.9,11.1
	c-2-2.1-5.7-2.5-8.2-0.1c-2.5,2.3-2.7,6.2-0.4,8.6c2.4,2.5,6.2,2.6,8.7,0.3c2.5-2.4,2.2-5.9,0.9-7.6c-0.1,0.9-0.6,1.4-1.4,1.3
	c-0.7-0.1-1.2-0.6-1.1-1.3C18.4,11.5,18.9,11.1,19.9,11.1z"/>
<path class="st6" d="M39.4,11.1c-1-0.3-1.7,0.6-1.6,1.5c0.1,0.6,0.7,1.1,1.3,1c0.6-0.1,1.1-0.5,1.1-1.2c0-0.1,0-0.1,0-0.3
	c0.5,0.7,0.7,1.3,0.9,2.1c0.9,4-2.2,7.6-6.3,7.4c-2.9-0.1-5.3-2.4-5.6-5.2c-0.5-3.9,2.5-7,6.4-6.9C37.1,9.4,38.4,10,39.4,11.1
	C39.5,11.1,39.5,11.1,39.4,11.1z"/>
<path class="st6" d="M39.5,11C39.5,11.1,39.5,11.1,39.5,11C39.5,11.1,39.5,11.1,39.5,11C39.5,11.1,39.5,11.1,39.5,11z"/>
<path class="st6" d="M19.9,11.1c-1,0-1.6,0.5-1.6,1.3c0,0.7,0.5,1.2,1.1,1.3c0.7,0.1,1.3-0.5,1.4-1.3c1.3,1.7,1.6,5.2-0.9,7.6
	s-6.3,2.3-8.7-0.3c-2.3-2.5-2.1-6.4,0.4-8.6C14.2,8.6,18,9,19.9,11.1z"/>
</svg>
