<?xml version="1.0" encoding="utf-8"?>
<!-- Generator: Adobe Illustrator 25.2.0, SVG Export Plug-In . SVG Version: 6.00 Build 0)  -->
<svg version="1.1" id="Layer_1" xmlns="http://www.w3.org/2000/svg" xmlns:xlink="http://www.w3.org/1999/xlink" x="0px" y="0px"
	 viewBox="0 0 50 48" style="enable-background:new 0 0 50 48;" xml:space="preserve">
<style type="text/css">
	.st0{fill:#09040A;}
	.st1{fill:#11B0CC;}
	.st2{fill:#0BAECA;}
	.st3{fill:#FBFCFC;}
	.st4{fill:#0CAFCA;}
</style>
<path class="st0" d="M35.2,35c-5,0-9.1-4.1-9.1-9.1c0-5,4.1-9.1,9.1-9.1s9.1,4.1,9.1,9.1C44.3,30.9,40.2,35,35.2,35z M42.8,25.9
	c0-4.2-3.4-7.6-7.6-7.6s-7.6,3.4-7.6,7.6s3.4,7.6,7.6,7.6S42.8,30.1,42.8,25.9z"/>
<path class="st0" d="M14.9,35c-5,0-9.1-4.1-9.1-9.1c0-5,4.1-9.1,9.1-9.1s9.1,4.1,9.1,9.1S20,35,14.9,35z M22.6,25.9
	c0-4.2-3.4-7.6-7.6-7.6s-7.6,3.4-7.6,7.6c0,4.2,3.4,7.6,7.6,7.6C19.2,33.6,22.6,30.1,22.6,25.9z"/>
<path class="st1" d="M37.7,12.9c3.7,0,7.4,0,11,0c0,3.6,0,7.3,0,11c-0.4,0-0.8,0-1.3,0c0-3.2,0-6.4,0-9.6c-3.2,0-6.5,0-9.7,0
	C37.7,13.8,37.7,13.3,37.7,12.9z"/>
<path class="st1" d="M1.6,38c0-3.6,0-7.3,0-10.9c0.4,0,0.9,0,1.3,0c0,3.2,0,6.4,0,9.6c3.2,0,6.5,0,9.7,0c0,0.5,0,0.9,0,1.4
	C9,38,5.3,38,1.6,38z"/>
<path class="st2" d="M12.6,12.9c0,0.4,0,0.8,0,1.3c-3.2,0-6.4,0-9.6,0c0,3.2,0,6.5,0,9.7c-0.4,0-0.8,0-1.3,0c0-3.6,0-7.3,0-11
	C5.2,12.9,8.9,12.9,12.6,12.9z"/>
<path class="st2" d="M47.4,36.7c0-3.3,0-6.5,0-9.7c0.4,0,0.8,0,1.3,0c0,3.6,0,7.4,0,11c-3.6,0-7.3,0-10.9,0c0-0.4,0-0.8,0-1.3
	C41,36.7,44.2,36.7,47.4,36.7z"/>
<path class="st3" d="M42.8,25.9c0,4.2-3.4,7.6-7.6,7.6s-7.6-3.4-7.6-7.6s3.4-7.6,7.6-7.6S42.8,21.7,42.8,25.9z M39.5,21.4L39.5,21.4
	C39.6,21.4,39.5,21.4,39.5,21.4c-1-1.2-2.4-1.7-3.9-1.8c-4-0.2-7.1,3.2-6.6,7.2c0.3,3,2.9,5.3,5.8,5.4c4.3,0.2,7.4-3.6,6.5-7.7
	c-0.1-0.8-0.5-1.4-1-2.1c0,0.1,0,0.3,0,0.3c0,0.7-0.6,1.2-1.2,1.2c-0.7,0.1-1.2-0.4-1.4-1C37.7,22,38.4,21.2,39.5,21.4z"/>
<path class="st3" d="M22.6,25.9c0,4.2-3.4,7.6-7.6,7.6s-7.6-3.4-7.6-7.6s3.4-7.6,7.6-7.6C19.2,18.3,22.6,21.7,22.6,25.9z M19.3,21.4
	c-2.1-2.1-5.9-2.5-8.5-0.1c-2.6,2.3-2.8,6.4-0.4,8.9c2.5,2.6,6.5,2.7,9,0.3c2.5-2.5,2.3-6.1,0.9-7.8c-0.1,0.9-0.6,1.4-1.4,1.4
	c-0.7-0.1-1.2-0.6-1.2-1.3C17.7,21.9,18.2,21.4,19.3,21.4z"/>
<path class="st4" d="M39.5,21.4c-1-0.3-1.8,0.6-1.7,1.5c0.1,0.6,0.7,1.1,1.4,1c0.6-0.1,1.2-0.6,1.2-1.2c0-0.1,0-0.1,0-0.3
	c0.5,0.7,0.8,1.4,1,2.1c1,4.1-2.3,7.9-6.5,7.7c-3-0.1-5.5-2.5-5.8-5.4c-0.5-4,2.6-7.3,6.6-7.2C37.1,19.7,38.4,20.2,39.5,21.4
	C39.5,21.4,39.5,21.4,39.5,21.4z"/>
<path class="st4" d="M39.5,21.3C39.5,21.4,39.6,21.4,39.5,21.3C39.5,21.4,39.5,21.4,39.5,21.3C39.5,21.4,39.5,21.4,39.5,21.3z"/>
<path class="st4" d="M19.3,21.4c-1,0-1.7,0.5-1.7,1.3c0,0.7,0.6,1.2,1.2,1.3c0.8,0.1,1.3-0.5,1.4-1.4c1.4,1.7,1.7,5.4-0.9,7.8
	s-6.5,2.3-9-0.3c-2.4-2.5-2.2-6.6,0.4-8.9C13.4,18.8,17.3,19.3,19.3,21.4z"/>
</svg>
